<?xml version="1.0" encoding="utf-8"?>
<!-- Generator: Adobe Illustrator 25.4.1, SVG Export Plug-In . SVG Version: 6.00 Build 0)  -->
<svg version="1.1" id="圖層_1" xmlns="http://www.w3.org/2000/svg" xmlns:xlink="http://www.w3.org/1999/xlink" x="0px" y="0px"
	 viewBox="0 0 512 512" style="enable-background:new 0 0 512 512;" xml:space="preserve">
<style type="text/css">
	.st0{fill:#FFD91F;}
	.st1{fill:#FFA022;}
	.st2{fill:#D9AC80;}
	.st3{fill:#A67E4F;}
	.st4{fill:#643513;}
	.st5{fill:#F2D3BA;}
</style>
<path class="st0" d="M512,256c0,86.4-42.8,162.8-108.4,209.2c-15.7,11.1-32.7,20.5-50.7,27.9c-29.9,12.2-62.6,19-96.9,19
	c-26.5,0-52-4-76.1-11.5c-20.6-6.4-40-15.3-58-26.4c-39-24-71.1-58.3-92.6-99C22.2,361.5,16.1,347,11.5,332C4,308,0,282.5,0,256
	C0,169.6,42.8,93.2,108.4,46.8c15.7-11.1,32.7-20.5,50.7-27.9C189,6.7,221.7,0,256,0C397.4,0,512,114.6,512,256z"/>
<path class="st1" d="M512,256c0,86.4-42.8,162.8-108.4,209.2c-15.7,11.1-32.7,20.5-50.7,27.9c-29.9,12.2-62.6,19-96.9,19V0
	C397.4,0,512,114.6,512,256z"/>
<path class="st2" d="M256,256v244.5h-76.1c-20.6-6.4-40-15.3-58-26.4C69.8,442,30,391.7,11.5,332v-76H256z"/>
<g>
	<path class="st3" d="M256,474.2v26.4h-76.1c-20.6-6.4-40-15.3-58-26.4H256z"/>
	<path class="st3" d="M29.4,256v119.2C22.2,361.5,16.1,347,11.5,332v-76H29.4z"/>
	<path class="st4" d="M171.7,375H95.8c-10,0-18.1-8.1-18.1-18.1c0-10,8.1-18.1,18.1-18.1h75.9c10,0,18.1,8.1,18.1,18.1
		C189.7,366.9,181.7,375,171.7,375z"/>
</g>
<path class="st5" d="M166.5,330.3l-32.8-19.4L101,330.3V256h65.5V330.3z"/>
<path class="st2" d="M500.5,11.5V256H256V11.5H500.5z"/>
<path class="st3" d="M256,229.6h244.5V256H256V229.6z"/>
<path class="st3" d="M256,11.5h17.9V256H256V11.5z"/>
<path class="st4" d="M416.2,130.5h-75.9c-10,0-18.1-8.1-18.1-18.1s8.1-18.1,18.1-18.1h75.9c10,0,18.1,8.1,18.1,18.1
	S426.2,130.5,416.2,130.5z"/>
<path class="st5" d="M411,85.8l-32.8-19.4l-32.8,19.4V11.5H411V85.8z"/>
<path class="st0" d="M441.6,386.8h-38v78.4c-15.7,11.1-32.7,20.5-50.7,27.9V386.8h-38L378.3,277L441.6,386.8z"/>
<path class="st1" d="M197.1,128.1l-63.4,109.7L70.4,128.1h38V46.8c15.7-11.1,32.7-20.5,50.7-27.9v109.1H197.1z"/>
</svg>
