<?xml version="1.0" encoding="utf-8"?>
<!-- Generator: Adobe Illustrator 25.4.1, SVG Export Plug-In . SVG Version: 6.00 Build 0)  -->
<svg version="1.1" id="Capa_1" xmlns="http://www.w3.org/2000/svg" xmlns:xlink="http://www.w3.org/1999/xlink" x="0px" y="0px"
	 viewBox="0 0 392.8 392.8" style="enable-background:new 0 0 392.8 392.8;" xml:space="preserve">
<style type="text/css">
	.st0{fill:#FFD91F;}
	.st1{fill:#D9AC80;}
	.st2{fill:#F2D3BA;}
	.st3{fill:#A67E4F;}
	.st4{fill:#643513;}
	.st5{fill:#926E43;}
	.st6{clip-path:url(#SVGID_00000026882987720749947050000003284505525309804960_);}
</style>
<circle class="st0" cx="198.4" cy="210.8" r="170.2"/>
<g>
	<polygon class="st1" points="198.4,11.7 248.8,37.7 299.5,63.5 248.8,89.4 198.4,115.4 148,89.4 97.3,63.5 148,37.7 	"/>
	<polygon class="st2" points="152.4,35.4 253.5,87.1 244.4,91.7 143.3,40 	"/>
	<g>
		<path class="st3" d="M299.5,167.3V63.5l-50.7,26l-50.4,26V219L299.5,167.3z"/>
		<path class="st4" d="M239.3,108L263,96.4c3.6-1.7,7.8-0.4,9.1,3c1.3,3.4-0.6,7.6-4.2,9.5l-23.4,11.6c-3.6,1.7-7.8,0.4-9.1-3
			C233.9,114.1,235.8,109.7,239.3,108z"/>
		<polygon class="st5" points="198.4,219 198.4,115.4 148,89.4 97.3,63.5 97.3,167.3 		"/>
	</g>
</g>
<g>
	<defs>
		<circle id="SVGID_1_" cx="198.4" cy="210.8" r="170.2"/>
	</defs>
	<clipPath id="SVGID_00000025402749099594090650000011188812257090825382_">
		<use xlink:href="#SVGID_1_"  style="overflow:visible;"/>
	</clipPath>
	<g style="clip-path:url(#SVGID_00000025402749099594090650000011188812257090825382_);">
		<g>
			<polygon class="st1" points="97.3,167.2 147.7,193.2 198.4,218.9 147.7,244.9 97.3,270.8 46.8,244.9 -3.8,218.9 46.8,193.2 			
				"/>
			<polygon class="st2" points="51.3,190.8 152.4,242.6 143.3,247.2 42.2,195.5 			"/>
			<g>
				<path class="st3" d="M198.4,322.8V218.9l-50.7,26l-50.4,26v103.6L198.4,322.8z"/>
				<path class="st4" d="M138.2,263.4l23.6-11.6c3.6-1.7,7.8-0.4,9.1,3c1.3,3.4-0.6,7.6-4.2,9.5l-23.4,11.6c-3.6,1.7-7.8,0.4-9.1-3
					C132.8,269.6,134.7,265.1,138.2,263.4z"/>
				<polygon class="st5" points="97.3,374.5 97.3,270.8 46.8,244.9 -3.8,218.9 -3.8,322.8 				"/>
			</g>
		</g>
		<g>
			<polygon class="st1" points="299.5,167.2 350,193.2 400.6,218.9 350,244.9 299.5,270.8 249.1,244.9 198.4,218.9 249.1,193.2 			
				"/>
			<polygon class="st2" points="253.5,190.8 354.6,242.6 345.5,247.2 244.4,195.5 			"/>
			<g>
				<path class="st3" d="M400.6,322.8V218.9l-50.7,26l-50.4,26v103.6L400.6,322.8z"/>
				<path class="st4" d="M340.5,263.4l23.6-11.6c3.6-1.7,7.8-0.4,9.1,3c1.3,3.4-0.6,7.6-4.2,9.5l-23.4,11.6c-3.6,1.7-7.8,0.4-9.1-3
					C335,269.6,336.9,265.1,340.5,263.4z"/>
				<polygon class="st5" points="299.5,374.5 299.5,270.8 249.1,244.9 198.4,218.9 198.4,322.8 				"/>
			</g>
		</g>
		<g>
			<polygon class="st1" points="198.4,323 248.8,349 299.5,374.8 248.8,400.7 198.4,426.7 148,400.7 97.3,374.8 148,349 			"/>
			<polygon class="st2" points="152.4,346.7 253.5,398.4 244.4,403 143.3,351.3 			"/>
			<g>
				<path class="st3" d="M299.5,478.6V374.8l-50.7,26l-50.4,26v103.6L299.5,478.6z"/>
				<path class="st4" d="M239.3,419.3l23.6-11.6c3.6-1.7,7.8-0.4,9.1,3c1.3,3.4-0.6,7.6-4.2,9.5l-23.4,11.6c-3.6,1.7-7.8,0.4-9.1-3
					C233.9,425.4,235.8,421,239.3,419.3z"/>
				<polygon class="st5" points="198.4,530.3 198.4,426.7 148,400.7 97.3,374.8 97.3,478.6 				"/>
			</g>
		</g>
	</g>
</g>
</svg>
