<?xml version="1.0" encoding="utf-8"?>
<!-- Generator: Adobe Illustrator 25.4.1, SVG Export Plug-In . SVG Version: 6.00 Build 0)  -->
<svg version="1.1" id="Capa_1" xmlns="http://www.w3.org/2000/svg" xmlns:xlink="http://www.w3.org/1999/xlink" x="0px" y="0px"
	 viewBox="0 0 512 512" style="enable-background:new 0 0 512 512;" xml:space="preserve">
<style type="text/css">
	.st0{fill:#FFD91F;}
	.st1{display:none;fill:#F7DE82;}
	.st2{display:none;fill:#EFC142;}
	.st3{display:none;fill:#E38D22;}
	.st4{fill:#FBF5EB;}
	.st5{fill:#DCE0EF;}
	.st6{fill:#CAD0E7;}
	.st7{fill:#5F657A;}
	.st8{fill:#FFFFFF;}
	.st9{fill:#8AB8EC;}
	.st10{fill:#728EE4;}
	.st11{fill:#EAA688;}
	.st12{fill:#E2835A;}
	.st13{fill:#DA5F2A;}
	.st14{fill:#535564;}
</style>
<g>
	<g>
		<circle class="st0" cx="258.3" cy="256" r="256"/>
		<path class="st1" d="M256,311.3c-141.4,0-244-144.1-223-181.2C77,52.4,160.4,0,256,0c96,0,179.6,52.8,223.4,131
			C500.2,167.9,397.4,311.3,256,311.3z"/>
		<path class="st2" d="M512,256c0,26.1-3.9,51.2-11.1,74.9c-5,16.5-11.7,32.2-19.8,47.1c-8.2,15.2-147.4,32.7-225.1,32.7
			S39.1,393.2,30.9,378c-3.3-6-6.3-12.2-9.1-18.5C7.8,327.8,0,292.8,0,256c0-46.2,12.2-89.6,33.7-127C77.8,206.1,160.8,258,256,258
			s178.2-51.9,222.3-129C499.8,166.4,512,209.8,512,256z"/>
		<path class="st3" d="M481.3,377.7c-7.2,13.2-15.4,25.7-24.7,37.4c-8.4,10.6-17.7,20.6-27.7,29.7c-4.9,4.5-9.9,8.8-15.2,12.8
			c-43.5,34-271.9,34-315.4-0.1c-5.2-4.1-10.2-8.3-15.1-12.8c-10-9.2-19.3-19.1-27.7-29.7c-9.3-11.7-17.6-24.2-24.7-37.4H481.3z"/>
	</g>
	<g>
		<path class="st4" d="M256.2,120.6l-0.2,0.2L106.1,261.2l-21,31.8h13.1v164.6c23.6,18.5,50.6,33,79.9,42.3H256h77.9
			c29.3-9.3,56.3-23.8,79.9-42.3V293H426l-19.8-30.9L256.2,120.6z"/>
		<path class="st5" d="M256.2,120.6l-0.2,0.2v379.1h77.9c29.3-9.3,56.3-23.8,79.9-42.3V293H426l-19.8-30.9L256.2,120.6z"/>
		<path class="st5" d="M171.5,268.9v169h169.9v-169H171.5z"/>
		<path class="st6" d="M256,268.9h85.3v169H256V268.9z"/>
		<path class="st7" d="M389.6,244.7l-48.3-48.3v-48.3h48.3V244.7z"/>
		<path class="st4" d="M255.8,99.8L49.9,293h0L255.8,99.8L255.8,99.8z"/>
		<path class="st4" d="M122.4,124H98.2V99.8H74.1V124H49.9v24.1h24.2v24.1h24.2v-24.1h24.2V124z"/>
		<path class="st8" d="M362.1,62.4h-24.2V38.2h-24.1v24.2h-24.2v24.1h24.2v24.1h24.1V86.5h24.2V62.4z"/>
		<path class="st9" d="M195.6,293h48.3v48.3h-48.3V293z"/>
		<path class="st10" d="M268.1,293h49.1v48.3h-49.1V293z"/>
		<path class="st9" d="M195.6,365.5h48.3v48.3h-48.3V365.5z"/>
		<path class="st10" d="M268.1,365.5h49.1v48.3h-49.1V365.5z"/>
		<path class="st11" d="M256,100l-0.2-0.2l0,0L49.9,293h35.2L256,132.9l0.2-0.2L426,293h36L256,100z"/>
		<path class="st12" d="M256,100l-0.2-0.2l0,0l-99.2,93.1V226l99.4-93.2l0.2-0.2L426,293h36L256,100z"/>
		<path class="st13" d="M426,293h36L256,100v32.9l0.2-0.2L426,293z"/>
		<path class="st7" d="M147.4,487.9c33,15.5,69.8,24.1,108.6,24.1s75.7-8.7,108.6-24.1H147.4z"/>
		<path class="st14" d="M256,487.9V512c38.8,0,75.7-8.7,108.6-24.1H256z"/>
	</g>
	<g>
		<path class="st8" d="M193.9,79.1h-1.5c-6.8,0-12.2-5.5-12.2-12.2v-1.5h-8.7v1.5c0,6.8-5.5,12.2-12.2,12.2h-1.5v8.7h1.5
			c6.8,0,12.2,5.5,12.2,12.2v1.5h8.7V100c0-6.8,5.5-12.2,12.2-12.2h1.5V79.1z"/>
		<path class="st8" d="M67.9,218.9h-1.5c-6.8,0-12.2-5.5-12.2-12.2v-1.5h-8.7v1.5c0,6.8-5.5,12.2-12.2,12.2h-1.5v8.7h1.5
			c6.8,0,12.2,5.5,12.2,12.2v1.5h8.7v-1.5c0-6.8,5.5-12.2,12.2-12.2h1.5V218.9z"/>
		<path class="st8" d="M477.5,211.3H476c-6.8,0-12.2-5.5-12.2-12.2v-1.5H455v1.5c0,6.8-5.5,12.2-12.2,12.2h-1.5v8.7h1.5
			c6.8,0,12.2,5.5,12.2,12.2v1.5h8.7v-1.5c0-6.8,5.5-12.2,12.2-12.2h1.5V211.3z"/>
	</g>
</g>
</svg>
