<?xml version="1.0" encoding="utf-8"?>
<!-- Generator: Adobe Illustrator 25.4.1, SVG Export Plug-In . SVG Version: 6.00 Build 0)  -->
<svg version="1.1" xmlns="http://www.w3.org/2000/svg" xmlns:xlink="http://www.w3.org/1999/xlink" x="0px" y="0px"
	 viewBox="0 0 508 508" style="enable-background:new 0 0 508 508;" xml:space="preserve">
<style type="text/css">
	.st0{fill:#FFD91F;}
	.st1{fill:#BCBCBC;}
	.st2{fill:#4A89DC;}
	.st3{fill:#5D9CEC;}
	.st4{fill:#A67E4F;}
	.st5{fill:#E6E9ED;}
	.st6{fill:#D9AC80;}
	.st7{fill:#F2D3BA;}
	.st8{clip-path:url(#SVGID_00000034780010738315538230000003341641431960144518_);fill:#656D78;}
	.st9{clip-path:url(#SVGID_00000034780010738315538230000003341641431960144518_);fill:#545C66;}
</style>
<g id="圖層_2">
	<circle class="st0" cx="258.4" cy="262.8" r="238.5"/>
</g>
<g id="圖層_1">
	<g id="圖層_6">
		<path class="st1" d="M34.9,346.4c33.9,90.5,121.1,155,223.5,155s189.6-64.5,223.5-155H34.9z"/>
	</g>
	<path class="st2" d="M411.1,438.2c0,2.1-1.7,3.8-3.8,3.8h-75c-2.1,0-3.8-1.7-3.8-3.8v-15c0-2.1,1.7-3.8,3.8-3.8h75
		c2.1,0,3.8,1.7,3.8,3.8V438.2z"/>
	<path class="st2" d="M193.6,438.2c0,2.1-1.7,3.8-3.8,3.8h-75c-2.1,0-3.8-1.7-3.8-3.8v-15c0-2.1,1.7-3.8,3.8-3.8h75
		c2.1,0,3.8,1.7,3.8,3.8V438.2z"/>
	<path class="st3" d="M99.8,374.4h322.6v45H99.8V374.4z"/>
	<path class="st2" d="M99.8,21.8h322.6v45H99.8V21.8z"/>
	<path class="st4" d="M99.8,66.8h322.6v307.6H99.8V66.8z"/>
	<path class="st2" d="M159.8,400.7c0,2.1-1.7,3.8-3.8,3.8h-37.5c-2.1,0-3.8-1.7-3.8-3.8v-7.5c0-2.1,1.7-3.8,3.8-3.8H156
		c2.1,0,3.8,1.7,3.8,3.8V400.7z"/>
	<path class="st2" d="M407.4,400.7c0,2.1-1.7,3.8-3.8,3.8h-37.5c-2.1,0-3.8-1.7-3.8-3.8v-7.5c0-2.1,1.7-3.8,3.8-3.8h37.5
		c2.1,0,3.8,1.7,3.8,3.8V400.7z"/>
	<path class="st5" d="M294.8,400.7c0,2.1-1.7,3.8-3.8,3.8h-60c-2.1,0-3.8-1.7-3.8-3.8v-7.5c0-2.1,1.7-3.8,3.8-3.8h60
		c2.1,0,3.8,1.7,3.8,3.8V400.7z"/>
	<path class="st3" d="M212.3,51.8h97.5v15h-97.5V51.8z"/>
	<path class="st6" d="M103.5,246.9h153.8v127.6H103.5V246.9z"/>
	<path class="st3" d="M422.4,423.2H99.8c-2.1,0-3.8-1.7-3.8-3.8V21.8c0-2.1,1.7-3.8,3.8-3.8h322.6c2.1,0,3.8,1.7,3.8,3.8v397.7
		C426.1,421.5,424.5,423.2,422.4,423.2z M103.5,415.7h315.1V25.5H103.5V415.7z"/>
	<g>
		<path class="st6" d="M103.5,66.8h191.3v52.5H103.5V66.8z"/>
		<path class="st6" d="M302.3,66.8h116.3v52.5H302.3V66.8z"/>
		<path class="st6" d="M103.5,126.8h72.2v112.6h-72.2V126.8z"/>
		<path class="st6" d="M264.4,246.9h83v127.6h-83V246.9z"/>
		<path class="st6" d="M354.9,126.8h63.8v247.6h-63.8V126.8z"/>
		<path class="st6" d="M182.3,126.8h165.1v112.6H182.3V126.8z"/>
	</g>
	<path class="st7" d="M190.3,276.9l-11.3-7.5l-11.3,7.5v-30h22.5V276.9z"/>
	<path class="st7" d="M317.1,277l-11.3-7.5l-11.3,7.5v-30h22.5V277z"/>
	<path class="st7" d="M276.1,156.8l-11.3-7.5l-11.3,7.5v-30h22.5V156.8z"/>
	<path class="st7" d="M398,156.8l-11.3-7.5l-11.3,7.5v-30H398V156.8z"/>
	<path class="st7" d="M150.9,156.8l-11.3-7.5l-11.3,7.5v-30h22.5V156.8z"/>
</g>
<g id="圖層_3">
	<g>
		<defs>
			<circle id="SVGID_1_" cx="258.4" cy="262.8" r="238.5"/>
		</defs>
		<clipPath id="SVGID_00000131348038107752103690000011855064220028005004_">
			<use xlink:href="#SVGID_1_"  style="overflow:visible;"/>
		</clipPath>
		<path style="clip-path:url(#SVGID_00000131348038107752103690000011855064220028005004_);fill:#656D78;" d="M336.3,441.9v37.5
			c0,8.3,6.8,15,15,15h37.5c8.3,0,15-6.8,15-15v-37.5H336.3z"/>
		<path style="clip-path:url(#SVGID_00000131348038107752103690000011855064220028005004_);fill:#656D78;" d="M118.5,441.9v37.5
			c0,8.3,6.8,15,15,15H171c8.3,0,15-6.8,15-15v-37.5H118.5z"/>
		<path style="clip-path:url(#SVGID_00000131348038107752103690000011855064220028005004_);fill:#545C66;" d="M152.3,475.7
			c-2.1,0-3.8-1.7-3.8-3.8v-30c0-2.1,1.7-3.8,3.8-3.8c2.1,0,3.8,1.7,3.8,3.8v30C156,474,154.4,475.7,152.3,475.7z"/>
		<path style="clip-path:url(#SVGID_00000131348038107752103690000011855064220028005004_);fill:#545C66;" d="M369.9,475.7
			c-2.1,0-3.8-1.7-3.8-3.8v-30c0-2.1,1.7-3.8,3.8-3.8s3.8,1.7,3.8,3.8v30C373.6,474,371.9,475.7,369.9,475.7z"/>
	</g>
</g>
</svg>
