<svg id="圖層_1" data-name="圖層 1" xmlns="http://www.w3.org/2000/svg" viewBox="0 0 648 78"><defs><style>.cls-1{fill:#a67e4f;}</style></defs><path class="cls-1" d="M804.29,253.12h-632a7.5,7.5,0,1,1,0-15h632a7.5,7.5,0,0,1,0,15Z" transform="translate(-163.79 -175.12)"/><path class="cls-1" d="M601.05,244.12a17,17,0,0,1-15.32-9.53l-17.94-36.42a7.07,7.07,0,0,0-12.62-.14l-14.78,36c0,.1-.09.21-.14.31a17.07,17.07,0,0,1-30.63,0l-.15-.31L494.9,198.48a7,7,0,0,0-6.28-3.81h0a6.93,6.93,0,0,0-6.31,3.94L467.15,233.1a.77.77,0,0,1-.07.16,16.94,16.94,0,0,1-15.3,9.67h-.09a17,17,0,0,1-15.31-9.52,1,1,0,0,1-.07-.15L420,197.09a7.07,7.07,0,0,0-12.66.06l-17.81,36.13a17.08,17.08,0,0,1-30.64,0L341,197.12a7.08,7.08,0,0,0-12.7,0L310,234.3a17.08,17.08,0,0,1-30.63,0l-17.94-36.4a7.08,7.08,0,0,0-12.64-.11l-14.78,35-.12.27a17.09,17.09,0,0,1-30.6.08l-25.58-47.91a5,5,0,0,1,8.83-4.71l25.61,48,.07.15a7.08,7.08,0,0,0,12.64.11l14.79-35a1.59,1.59,0,0,1,.12-.27,17.08,17.08,0,0,1,30.63,0l17.94,36.4a7.08,7.08,0,0,0,12.69,0l18.32-37.18a17.08,17.08,0,0,1,30.64,0l17.8,36.09a7.08,7.08,0,0,0,12.7,0l17.81-36.13a17.06,17.06,0,0,1,30.63,0l.07.15L445.35,229a6.91,6.91,0,0,0,6.31,3.88h0A6.93,6.93,0,0,0,458,229l15.15-34.49.07-.16a17,17,0,0,1,15.31-9.67h.08a17,17,0,0,1,15.36,9.49,2.92,2.92,0,0,1,.14.31L518.65,230a7.07,7.07,0,0,0,12.56,0L546,194c0-.1.09-.2.14-.31a17.08,17.08,0,0,1,30.63,0l17.94,36.46a7.07,7.07,0,0,0,12.69,0l18.33-37.18a17.08,17.08,0,0,1,30.63,0l17.81,36.18a7.08,7.08,0,0,0,12.69,0L704.66,193A17,17,0,0,1,720,183.46h0A17,17,0,0,1,735.29,193l.09.2,16.27,37a6.93,6.93,0,0,0,6.3,3.87h0a6.94,6.94,0,0,0,6.34-4c.06-.11.11-.22.18-.33l25.59-45a5,5,0,1,1,8.83,4.69,2,2,0,0,1-.14.25l-25.51,44.77A17,17,0,0,1,758.08,244H758a17,17,0,0,1-15.32-9.53l-.09-.2-16.26-37a7.09,7.09,0,0,0-12.65.08l-17.84,36.16a17.08,17.08,0,0,1-30.63,0l-17.81-36.14a7.09,7.09,0,0,0-12.69,0l-18.33,37.18A17,17,0,0,1,601.05,244.12Z" transform="translate(-163.79 -175.12)"/><path class="cls-1" d="M803.29,190.12h-632a7.5,7.5,0,1,1,0-15h632a7.5,7.5,0,0,1,0,15Z" transform="translate(-163.79 -175.12)"/></svg>