<?xml version="1.0" encoding="utf-8"?>
<!-- Generator: Adobe Illustrator 25.4.1, SVG Export Plug-In . SVG Version: 6.00 Build 0)  -->
<svg version="1.1" id="圖層_3" xmlns="http://www.w3.org/2000/svg" xmlns:xlink="http://www.w3.org/1999/xlink" x="0px" y="0px"
	 viewBox="0 0 647 69.9" style="enable-background:new 0 0 647 69.9;" xml:space="preserve">
<style type="text/css">
	.st0{fill:#A67E4F;}
</style>
<path class="st0" d="M639.5,69.9H7.5c-4.1,0-7.5-3.4-7.5-7.5s3.4-7.5,7.5-7.5h632c4.1,0,7.5,3.4,7.5,7.5S643.6,69.9,639.5,69.9z"/>
<path class="st0" d="M639.5,15H7.5C3.4,15,0,11.6,0,7.5S3.4,0,7.5,0h632c4.1,0,7.5,3.4,7.5,7.5S643.6,15,639.5,15z"/>
<g>
	<path class="st0" d="M642,8.1c-1.8-1-4.1-0.3-5.1,1.5l-19.3,36.2l0,0.1c-1.3,2.6-4.5,3.7-7.2,2.4c-1-0.5-1.9-1.3-2.4-2.3
		l-11.2-26.4l-0.1-0.2c-3.2-6.4-10.9-9-17.3-5.9c-2.5,1.3-4.6,3.3-5.9,5.9L560,46.9c-1.3,2.6-4.5,3.7-7.2,2.4
		c-1.1-0.5-1.9-1.4-2.4-2.4l-13.8-28c-3.1-6.4-10.9-9-17.3-5.9c-2.6,1.3-4.6,3.3-5.9,5.9L500,46.1c-1.3,2.6-4.5,3.7-7.2,2.4
		c-1.1-0.5-1.9-1.4-2.4-2.4L477,18.9c-3.1-6.4-10.9-9-17.3-5.9c-2.6,1.3-4.6,3.3-5.9,5.9V19l-12.4,27.3c-1.3,2.6-4.5,3.7-7.1,2.4
		c-1-0.5-1.9-1.4-2.4-2.4l-11.4-26v-0.1c-2.1-4.5-6.6-7.3-11.6-7.3h-0.1c-4.9,0-9.4,2.7-11.6,7.2c0,0.1-0.1,0.1-0.1,0.2l-11,26.8
		c-1.4,2.6-4.6,3.6-7.2,2.3c-1-0.5-1.8-1.3-2.3-2.3l-11.2-27.2c0-0.1-0.1-0.1-0.1-0.2c-3.1-6.4-10.9-9-17.3-5.9
		c-2.5,1.3-4.6,3.3-5.9,5.9l-13.5,27.5c-0.9,1.8-2.8,3-4.8,3V50h-0.4c-0.1,0-0.3,0-0.4,0v0.1c-2,0-3.9-1.1-4.8-3l-13.5-27.5
		c-3.1-6.4-10.9-9-17.3-5.9c-2.5,1.3-4.6,3.3-5.9,5.9c0,0.1-0.1,0.2-0.1,0.2L270.4,47c-0.5,1-1.3,1.8-2.3,2.3
		c-2.6,1.4-5.8,0.3-7.2-2.3c0,0,0,0,0,0l-11-26.8c0-0.1-0.1-0.2-0.1-0.2c-2.2-4.4-6.7-7.2-11.6-7.2h-0.1c-4.9,0-9.4,2.8-11.6,7.3
		l0,0.1l-11.4,26c-1.3,2.6-4.5,3.7-7.1,2.4c-1-0.5-1.9-1.4-2.4-2.4l-12.4-27.3l0-0.1c-3.1-6.4-10.9-9-17.2-5.9
		c-2.6,1.3-4.6,3.3-5.9,5.9l-13.5,27.3c-1.3,2.6-4.5,3.7-7.2,2.4c-1.1-0.5-1.9-1.4-2.4-2.4l-13.4-27.2c-3.2-6.4-10.9-9-17.3-5.8
		c-2.5,1.2-4.5,3.3-5.8,5.8L96.6,47c-1.3,2.6-4.5,3.7-7.2,2.4C88.4,48.9,87.6,48,87,47L73.4,19.5c-3.1-6.4-10.9-9-17.3-5.9
		c-2.5,1.3-4.6,3.3-5.9,5.9c0,0.1-0.1,0.1-0.1,0.2L39.1,46.1c-1.4,2.6-4.6,3.7-7.2,2.3c-1-0.5-1.8-1.4-2.3-2.4l-0.1-0.1L10.1,9.6
		C9.1,7.9,6.8,7.3,5,8.3c-1.7,1-2.3,3.1-1.5,4.9l19.3,36.2c3.2,6.4,10.9,8.9,17.3,5.8c2.5-1.3,4.5-3.3,5.8-5.8l0.1-0.2l11.2-26.4
		c0.5-1,1.4-1.8,2.4-2.3c2.6-1.3,5.8-0.2,7.2,2.4l13.5,27.5c3.2,6.4,10.9,9,17.3,5.9c2.5-1.3,4.6-3.3,5.9-5.9l13.8-28.1
		c1.3-2.6,4.5-3.7,7.2-2.4c1.1,0.5,1.9,1.4,2.4,2.4l13.5,27.3c3.2,6.4,10.9,9,17.3,5.9c2.5-1.3,4.6-3.3,5.9-5.9l13.4-27.3
		c1.3-2.6,4.5-3.7,7.1-2.5c1.1,0.5,1.9,1.4,2.4,2.4l12.3,27.3c0,0,0,0.1,0.1,0.1c2.2,4.4,6.6,7.2,11.5,7.2h0.1
		c4.9,0,9.4-2.8,11.5-7.3c0,0,0-0.1,0-0.1l11.5-26c1.3-2.6,4.5-3.7,7.1-2.4c1,0.5,1.9,1.3,2.4,2.3l11,26.8l0.1,0.2
		c3.1,6.4,10.9,9,17.2,5.9c2.6-1.3,4.6-3.3,5.9-5.9c0.1-0.1,0.1-0.1,0.1-0.2l11.2-27.2c1.4-2.6,4.6-3.6,7.2-2.3
		c1,0.5,1.8,1.4,2.3,2.4l13.5,27.5c2.2,4.4,6.6,7.2,11.6,7.2h0.4h0.4c4.9,0,9.4-2.8,11.6-7.2L349,23c1.3-2.6,4.5-3.7,7.1-2.4
		c1,0.5,1.9,1.3,2.4,2.3l11.2,27.2c0,0.1,0.1,0.2,0.1,0.2c3.1,6.4,10.9,9,17.3,5.9c2.6-1.3,4.6-3.3,5.9-5.9l0.1-0.2l11-26.8
		c1.4-2.6,4.6-3.6,7.2-2.3c1,0.5,1.8,1.4,2.3,2.4l11.5,26c0,0,0,0.1,0,0.1c2.1,4.5,6.6,7.3,11.5,7.3h0.1c4.9,0,9.4-2.8,11.6-7.2
		c0,0,0-0.1,0-0.1l12.3-27.3c1.3-2.6,4.5-3.7,7.2-2.4c1,0.5,1.9,1.4,2.4,2.4l13.5,27.3c3.1,6.4,10.9,9,17.3,5.9
		c2.6-1.3,4.6-3.3,5.9-5.9l13.5-27.3c1.3-2.6,4.5-3.7,7.2-2.4c1.1,0.5,1.9,1.4,2.4,2.4l13.8,28.1c3.1,6.4,10.9,9,17.2,5.9
		c2.6-1.3,4.6-3.3,5.9-5.9l13.5-27.5c1.3-2.6,4.5-3.7,7.2-2.4c1,0.5,1.8,1.3,2.4,2.3L601,49.1l0.1,0.2c3.2,6.4,10.9,9,17.3,5.8
		c2.5-1.2,4.5-3.3,5.8-5.8l19.3-36.2C644.5,11.4,643.8,9.1,642,8.1z"/>
	<path class="st0" d="M324,59.2C324,59.2,323.9,59.2,324,59.2h-0.9c0,0,0,0,0,0c-5.4,0-10.5-3.2-12.9-8l-13.5-27.5
		c-0.4-0.7-0.9-1.3-1.7-1.7c-1.9-1-4.2-0.3-5.1,1.6l-11.1,27.1c-0.1,0.2-0.1,0.3-0.2,0.5c-1.4,2.8-3.7,5.1-6.5,6.5
		c-7.1,3.5-15.8,0.6-19.2-6.6l-0.2-0.3l-11-26.8c-0.4-0.7-1-1.3-1.7-1.6c-1.9-0.9-4.2-0.1-5.1,1.7l-11.4,25.9c0,0.1-0.1,0.2-0.1,0.3
		c-2.3,4.9-7.4,8.1-12.9,8.1c0,0,0,0,0,0c-5.5,0-10.5-3.1-12.9-8c-0.1-0.1-0.1-0.2-0.1-0.3L185,22.8c-0.3-0.7-1-1.3-1.7-1.7
		c-1.9-0.9-4.2-0.1-5.1,1.8l-13.4,27.3c-1.4,2.8-3.7,5.2-6.5,6.5c-7.1,3.5-15.8,0.6-19.3-6.5l-13.5-27.3c-0.4-0.8-1-1.4-1.7-1.7
		c-0.9-0.5-2-0.5-2.9-0.2c-1,0.3-1.8,1-2.2,1.9l-13.8,28.1c-1.4,2.8-3.7,5.1-6.5,6.5C91,61,82.4,58,78.9,50.9L65.3,23.4
		c-0.9-1.9-3.3-2.7-5.2-1.7c-0.7,0.4-1.3,0.9-1.7,1.6L47.3,49.9c-1.4,2.9-3.7,5.2-6.5,6.6c-3.4,1.7-7.3,2-11,0.8
		c-3.6-1.2-6.6-3.8-8.3-7.2L2.2,13.9c-1.2-2.5-0.3-5.5,2-6.9c1.2-0.7,2.6-0.9,4-0.6s2.5,1.2,3.2,2.4l19.4,36.5
		c0.4,0.7,1,1.3,1.7,1.7c1.9,1,4.2,0.2,5.1-1.6l11.1-26.3c0-0.1,0.1-0.3,0.2-0.4c1.4-2.8,3.7-5.1,6.5-6.5c7.1-3.5,15.8-0.6,19.3,6.5
		l13.6,27.5c0.4,0.8,1,1.4,1.7,1.7c0.9,0.5,2,0.5,2.9,0.2c1-0.3,1.8-1,2.2-1.9l13.8-28.1c1.4-2.8,3.7-5.1,6.5-6.5
		c3.4-1.7,7.3-2,11-0.8c3.7,1.2,6.6,3.8,8.3,7.2l13.4,27.2c0.4,0.8,1,1.4,1.7,1.7c1.9,0.9,4.2,0.2,5.2-1.7l13.4-27.3
		c1.4-2.8,3.7-5.2,6.6-6.6c7.1-3.5,15.8-0.6,19.2,6.6l0.1,0.1l12.4,27.3c0.3,0.7,1,1.3,1.7,1.7c0.9,0.4,1.9,0.5,2.9,0.2
		c1-0.3,1.7-1,2.2-1.9l11.5-26c2.4-5,7.5-8.2,12.9-8.2c5.5,0,10.6,3.1,13,8c0.1,0.1,0.1,0.2,0.2,0.4l11,26.7
		c0.5,0.9,1.3,1.5,2.2,1.8c1,0.3,2,0.2,2.9-0.3c0.7-0.4,1.3-0.9,1.6-1.6l11.1-27c0,0,0-0.1,0-0.1l0,0c0-0.1,0.1-0.1,0.1-0.2l0-0.1
		c1.4-2.8,3.7-5.1,6.5-6.5c7.1-3.5,15.8-0.6,19.3,6.5l13.6,27.5c0.6,1.1,1.6,1.9,2.9,2.1l2.1,0c1.2-0.2,2.2-1,2.7-2.1l13.5-27.5
		c1.4-2.8,3.7-5.1,6.5-6.5c3.4-1.7,7.3-2,11-0.7c3.6,1.2,6.6,3.8,8.3,7.3c0,0.1,0.1,0.2,0.2,0.5l11.1,27c0.4,0.7,0.9,1.2,1.6,1.6
		c0.9,0.5,2,0.6,2.9,0.3c1-0.3,1.7-1,2.2-1.8l11.1-27.1c2.4-4.9,7.4-8,12.9-8c0,0,0.1,0,0.1,0c5.5,0,10.6,3.2,13,8.2l0.1,0.3v0.1
		l11.3,25.7c0.3,0.7,0.9,1.3,1.7,1.7c0.9,0.5,1.9,0.5,2.9,0.2c1-0.3,1.8-1,2.2-1.9l12.3-26.9v-0.1l0.2-0.3c1.4-2.8,3.7-5.2,6.6-6.6
		c7.1-3.5,15.8-0.6,19.3,6.6l13.4,27.2c0.4,0.8,1,1.4,1.7,1.7c0.9,0.5,2,0.5,2.9,0.2c1-0.3,1.8-1,2.2-1.9l13.4-27.2
		c1.4-2.8,3.7-5.2,6.6-6.6c3.5-1.7,7.4-2,11-0.7c3.6,1.2,6.6,3.8,8.3,7.3l13.8,28c0.4,0.8,1,1.4,1.7,1.7c1.9,0.9,4.2,0.2,5.1-1.7
		l13.5-27.5c1.4-2.8,3.7-5.1,6.5-6.5c7.1-3.5,15.8-0.6,19.3,6.5l0.1,0.2l11.1,26.4c0.4,0.7,1,1.3,1.7,1.6c1.9,0.9,4.2,0.2,5.1-1.8
		l0-0.1l19.4-36.3c1.4-2.6,4.6-3.5,7.1-2.2v0c2.6,1.4,3.5,4.6,2.2,7.1l-19.3,36.2c-1.4,2.7-3.7,5-6.5,6.4
		c-7.1,3.5-15.8,0.6-19.3-6.5l-0.1-0.3l-11.1-26.4c-0.4-0.7-1-1.3-1.7-1.6c-0.9-0.5-2-0.5-2.9-0.2c-1,0.3-1.8,1-2.2,1.9l-13.5,27.5
		c-1.4,2.8-3.7,5.2-6.6,6.6c-3.4,1.7-7.3,1.9-11,0.7c-3.6-1.2-6.6-3.8-8.3-7.3l-13.8-28.1c-0.4-0.8-1-1.4-1.7-1.7
		c-0.9-0.5-2-0.5-2.9-0.2c-1,0.3-1.8,1-2.2,1.9l-13.5,27.3c-1.4,2.8-3.7,5.2-6.6,6.6c-7.1,3.5-15.8,0.6-19.3-6.6l-13.5-27.3
		c-0.4-0.8-1-1.4-1.7-1.8c-1.9-0.9-4.2-0.2-5.1,1.7L449.6,50c0,0.1-0.1,0.2-0.1,0.2c-2.4,4.9-7.4,8-12.9,8c0,0,0,0,0,0
		c-5.6,0-10.6-3.2-13-8.2l-0.1-0.2l0-0.2l-11.3-25.7c-0.3-0.7-0.9-1.3-1.6-1.7c-0.9-0.5-1.9-0.6-2.9-0.2c-1,0.3-1.7,1-2.2,1.8
		l-11.1,27.1c-1.4,2.8-3.7,5.2-6.6,6.6c-7.1,3.5-15.8,0.6-19.3-6.6c0-0.1-0.1-0.2-0.2-0.4l-11.1-27c-0.4-0.7-1-1.3-1.7-1.6
		c-1.9-0.9-4.2-0.1-5.1,1.8l-13.5,27.5C334.5,56,329.4,59.2,324,59.2z M323.1,56.2h0.9c0,0,0,0,0,0c4.3,0,8.3-2.5,10.2-6.4
		l13.5-27.5c1.7-3.4,5.8-4.8,9.2-3.1c1.3,0.6,2.4,1.7,3.1,3l0.1,0.1l11.2,27.3c0,0,0,0.1,0,0.1c1.3,2.7,3.6,4.7,6.5,5.7
		c2.9,1,6,0.8,8.7-0.6c2.2-1.1,4.1-2.9,5.2-5.2l0.1-0.2l11-26.9c0.8-1.6,2.3-2.8,4-3.4c1.7-0.6,3.6-0.4,5.2,0.4
		c1.3,0.7,2.3,1.8,3,3.1l11.6,26.4l0,0.1c1.9,3.7,5.8,6.1,10,6.1c0,0,0,0,0,0c4.4,0,8.4-2.5,10.3-6.3l0-0.1l12.3-27.3
		c1.7-3.4,5.8-4.8,9.2-3.1c1.3,0.7,2.4,1.8,3.1,3.1L485,48.8c2.8,5.6,9.6,8,15.3,5.2c2.2-1.1,4.1-2.9,5.2-5.2l13.5-27.3
		c0.8-1.6,2.2-2.9,3.9-3.5c1.7-0.6,3.6-0.5,5.2,0.4c1.3,0.7,2.4,1.8,3.1,3.1L545,49.6c1.3,2.7,3.7,4.8,6.5,5.8s6,0.8,8.7-0.6
		c2.2-1.1,4.1-2.9,5.2-5.2L579,22.1c0.8-1.6,2.2-2.9,4-3.4c1.7-0.6,3.6-0.5,5.2,0.4c1.3,0.7,2.4,1.7,3,3l0,0.1l11.2,26.6
		c2.8,5.6,9.6,7.9,15.3,5.1c2.2-1.1,4-2.9,5.1-5.1l19.3-36.2c0.6-1.1,0.2-2.5-0.9-3.1l0,0c-1.1-0.6-2.5-0.2-3.1,0.9l-19.3,36.2
		c-1.7,3.4-5.8,4.8-9.2,3.2c-1.3-0.7-2.4-1.7-3.1-3l-0.1-0.1l-11.2-26.6c-2.8-5.6-9.6-7.9-15.2-5.1c-2.2,1.1-4.1,2.9-5.2,5.2
		l-13.5,27.5c-1.7,3.4-5.8,4.8-9.2,3.1c-1.3-0.7-2.4-1.8-3.1-3.1l-13.8-28c-1.3-2.7-3.7-4.8-6.6-5.8c-2.9-1-6-0.8-8.7,0.6
		c-2.2,1.1-4.1,3-5.2,5.2l-13.4,27.3c-0.8,1.6-2.2,2.9-3.9,3.5c-1.7,0.6-3.6,0.5-5.2-0.3c-1.3-0.7-2.4-1.8-3.1-3.1l-13.4-27.3
		c-2.8-5.6-9.6-8-15.2-5.2c-2.1,1.1-3.9,2.8-5,4.9v0.1l-12.6,27.6c-1.7,3.4-5.8,4.8-9.2,3.1c-1.3-0.7-2.4-1.8-3.1-3.1L419,20.4
		c-1.9-3.7-5.8-6.1-10.1-6.2c0,0-0.1,0-0.1,0c-4.3,0-8.2,2.4-10.2,6.2c-0.1,0.2-0.1,0.3-0.2,0.3l-11,26.9c-0.8,1.6-2.3,2.8-4,3.4
		s-3.6,0.4-5.2-0.4c-1.3-0.7-2.3-1.7-2.9-2.9l-0.1-0.1l-11.2-27.2c0,0,0-0.1-0.1-0.1c-1.3-2.7-3.6-4.7-6.5-5.7c-2.9-1-6-0.8-8.7,0.6
		c-2.2,1.1-4.1,2.9-5.2,5.2l-13.5,27.5c-1.1,2.3-3.6,3.8-6.2,3.8l-0.6,0l-0.1,0c-0.2,0-0.4,0-0.6,0l-0.1,0c-2.3-0.2-4.4-1.6-5.5-3.8
		l-13.5-27.5c-1.3-2.7-3.7-4.8-6.6-5.7c-2.9-1-6-0.8-8.7,0.6c-2.2,1.1-4,2.9-5.1,5.1c0,0.1-0.1,0.2-0.1,0.3l-11.2,27.2
		c-0.7,1.3-1.7,2.3-2.9,2.9c-1.6,0.8-3.5,1-5.2,0.4c-1.7-0.5-3-1.6-3.9-3.2l-0.1-0.1l-11.2-27.2c-1.9-3.9-5.9-6.4-10.2-6.3
		c-4.4,0-8.4,2.5-10.3,6.4l0,0l-11.5,26c-0.8,1.7-2.2,2.9-3.9,3.5c-1.7,0.6-3.6,0.5-5.2-0.3c-1.3-0.7-2.4-1.7-3.1-3.1l-12.4-27.5
		c-1.3-2.7-3.6-4.7-6.5-5.7s-6-0.8-8.7,0.6c-2.2,1.1-4.1,2.9-5.2,5.2l-13.5,27.3c-0.8,1.6-2.2,2.9-3.9,3.5c-1.7,0.6-3.6,0.5-5.2-0.3
		c-1.3-0.7-2.4-1.8-3.1-3.1l-13.4-27.2c-1.4-2.7-3.7-4.8-6.6-5.7c-2.9-1-6-0.7-8.7,0.6c-2.2,1.1-4,2.9-5.1,5.1L98,47.6
		c-0.8,1.6-2.2,2.9-3.9,3.5c-1.7,0.6-3.6,0.5-5.2-0.3c-1.3-0.7-2.4-1.8-3.1-3.1L72.1,20.1c-1.3-2.7-3.7-4.8-6.6-5.7
		c-2.9-1-6-0.8-8.7,0.6c-2.2,1.1-4.1,2.9-5.2,5.2l-0.1,0.1L40.4,46.8c-1.7,3.4-5.9,4.7-9.2,3c-1.3-0.7-2.3-1.7-3-3l-0.1-0.2
		L8.8,10.4C8.5,9.9,8,9.5,7.5,9.4C6.9,9.2,6.2,9.3,5.7,9.6c-1,0.6-1.4,1.9-0.9,2.9l19.3,36.1c1.4,2.8,3.7,4.8,6.6,5.7
		c2.9,1,6,0.7,8.7-0.6c2.2-1.1,4-2.9,5.1-5.1l0.1-0.1L55.8,22c0.7-1.3,1.7-2.4,3.1-3c3.4-1.7,7.5-0.3,9.2,3.1l13.5,27.5
		c2.8,5.6,9.6,8,15.3,5.2c2.2-1.1,4.1-2.9,5.2-5.2l13.8-28.1c0.8-1.6,2.2-2.9,3.9-3.5c1.7-0.6,3.6-0.5,5.2,0.3
		c1.3,0.7,2.4,1.8,3.1,3.1l13.5,27.3c2.8,5.6,9.6,8,15.3,5.2c2.2-1.1,4.1-2.9,5.2-5.2l13.4-27.3c1.6-3.4,5.7-4.8,9.1-3.1
		c1.3,0.7,2.5,1.8,3.1,3.1l12.4,27.4c1.9,3.9,5.9,6.3,10.2,6.3c0,0,0,0,0,0c4.4,0,8.4-2.5,10.3-6.4l0-0.1l11.5-26
		c0.8-1.7,2.2-2.9,3.9-3.5c1.7-0.6,3.6-0.5,5.2,0.3c1.3,0.6,2.4,1.7,3.1,3l0.1,0.1l11.1,26.9c2.8,5.7,9.6,8,15.2,5.2
		c2.2-1.1,4.1-2.9,5.2-5.2l0.1-0.1l11.2-27.3c1.7-3.3,5.9-4.7,9.2-2.9c1.3,0.7,2.3,1.7,3,3.1l13.5,27.5
		C314.8,53.7,318.7,56.2,323.1,56.2C323.1,56.2,323.1,56.2,323.1,56.2z M200.1,48.8L200.1,48.8C200.1,48.8,200.1,48.8,200.1,48.8z
		 M220.6,48.8C220.6,48.8,220.6,48.8,220.6,48.8C220.6,48.8,220.6,48.8,220.6,48.8z M395.9,19.3C395.9,19.3,395.9,19.3,395.9,19.3
		L395.9,19.3z"/>
</g>
</svg>
