<?xml version="1.0" encoding="utf-8"?>
<!-- Generator: Adobe Illustrator 25.4.1, SVG Export Plug-In . SVG Version: 6.00 Build 0)  -->
<svg version="1.1" id="圖層_2_00000044871481430727047000000014615727823670109837_"
	 xmlns="http://www.w3.org/2000/svg" xmlns:xlink="http://www.w3.org/1999/xlink" x="0px" y="0px" viewBox="0 0 647 58.9"
	 style="enable-background:new 0 0 647 58.9;" xml:space="preserve">
<style type="text/css">
	.st0{fill:#A67E4F;}
</style>
<path class="st0" d="M639.5,58.9H7.5c-4.1,0-7.5-3.4-7.5-7.5s3.4-7.5,7.5-7.5h632c4.1,0,7.5,3.4,7.5,7.5S643.6,58.9,639.5,58.9z"/>
<path class="st0" d="M639.5,15H7.5C3.4,15,0,11.6,0,7.5S3.4,0,7.5,0h632c4.1,0,7.5,3.4,7.5,7.5S643.6,15,639.5,15z"/>
<g>
	<path class="st0" d="M637.4,12.5c-1.2-0.6-2.6-0.2-3.3,1c0,0,0,0,0,0l-12.4,23.2v0.1c-0.8,1.7-2.9,2.4-4.6,1.6
		c-0.7-0.3-1.2-0.9-1.5-1.5l-7.2-17c0,0,0-0.1-0.1-0.1c-2-4.1-7-5.8-11.1-3.7c-1.6,0.8-2.9,2.1-3.7,3.7l-8.7,17.6
		c-0.8,1.7-2.9,2.4-4.6,1.5c-0.7-0.3-1.2-0.9-1.5-1.5l-8.9-18c-2-4.1-7-5.8-11.1-3.8c-1.6,0.8-2.9,2.1-3.8,3.8l-8.6,17.5
		c-0.8,1.7-2.9,2.4-4.6,1.6c-0.7-0.3-1.2-0.9-1.6-1.6l-8.6-17.5c-2-4.1-7-5.8-11.1-3.8c-1.6,0.8-3,2.1-3.8,3.8v0.1L508.9,37
		c-0.8,1.7-2.9,2.4-4.6,1.5c-0.7-0.3-1.2-0.9-1.5-1.5l-7.3-16.7v-0.1c-1.4-2.9-4.2-4.7-7.4-4.7l0,0c-3.2,0-6,1.8-7.4,4.6l-0.1,0.1
		l-7,17.2c-0.9,1.7-2.9,2.3-4.6,1.5c-0.6-0.3-1.1-0.8-1.5-1.5l-7.2-17.4c0,0,0-0.1-0.1-0.1c-2-4.1-7-5.8-11.1-3.8
		c-1.6,0.8-3,2.1-3.8,3.8l-8.7,17.6c-0.6,1.2-1.8,1.9-3.1,1.9l0,0h-0.3h-0.3l0,0c-1.3,0-2.5-0.7-3.1-1.9l-8.8-17.7
		c-2-4.1-7-5.8-11.1-3.8c-1.6,0.8-3,2.1-3.8,3.8c0,0-0.1,0.1-0.1,0.1l-7.2,17.4c-0.3,0.6-0.8,1.1-1.5,1.5c-1.7,0.9-3.7,0.2-4.6-1.5
		c0,0,0,0,0,0l-7.1-17.2c0-0.1,0-0.1-0.1-0.1c-1.4-2.8-4.3-4.6-7.4-4.6l0,0c-3.2,0-6,1.8-7.4,4.7v0.1l-7.4,16.7
		c-0.8,1.7-2.9,2.4-4.6,1.5c-0.7-0.3-1.2-0.9-1.5-1.5l-7.9-17.5v-0.1c-2-4.1-7-5.8-11.1-3.8c-1.6,0.8-3,2.1-3.8,3.8l-8.7,17.6
		c-0.3,0.7-0.9,1.2-1.6,1.6c-0.8,0.4-1.7,0.4-2.4,0c-0.7-0.3-1.2-0.9-1.6-1.6l-8.7-17.5c-2-4.1-7-5.8-11.1-3.8
		c-1.6,0.8-3,2.1-3.8,3.8v0.1l-7.9,17.5c-0.8,1.7-2.9,2.4-4.6,1.5c-0.7-0.3-1.2-0.9-1.5-1.5l-7.3-16.7v-0.1
		c-1.4-2.8-4.2-4.7-7.4-4.7l0,0c-3.2,0-6,1.8-7.4,4.6c0,0-0.1,0.1-0.1,0.1l-7,17.2c-0.9,1.7-2.9,2.3-4.6,1.5c0,0,0,0-0.1,0
		c-0.6-0.3-1.1-0.8-1.5-1.5L240.6,20c0-0.1,0-0.1-0.1-0.1c-2-4.1-7-5.8-11.1-3.7c-1.6,0.8-2.9,2.1-3.7,3.7l-8.7,17.6
		c-0.6,1.2-1.8,1.9-3.1,1.9l0,0h-0.3h-0.3l0,0c-1.3,0-2.5-0.7-3.1-1.9l-8.7-17.6c-2-4.1-7-5.8-11.1-3.8c-1.6,0.8-3,2.1-3.8,3.8
		c0,0-0.1,0.1-0.1,0.1l-7.1,17.4c-0.3,0.6-0.8,1.1-1.5,1.5c-1.7,0.9-3.7,0.2-4.6-1.5c0,0,0,0,0,0l-7-17.2l-0.1-0.1
		c-1.4-2.8-4.3-4.6-7.4-4.6l0,0c-3.2,0-6,1.8-7.4,4.7v0.1l-7.5,16.6c-0.8,1.7-2.9,2.4-4.6,1.5c-0.7-0.3-1.2-0.9-1.5-1.5l-7.9-17.5
		v-0.1c-2-4.1-7-5.8-11.1-3.8c-1.6,0.8-3,2.1-3.8,3.8l-8.7,17.6c-0.8,1.7-2.9,2.4-4.6,1.6c-0.7-0.3-1.2-0.9-1.6-1.6L92,19.4
		c-2-4.1-7-5.8-11.1-3.8c-1.6,0.8-2.9,2.1-3.8,3.8l-8.9,18c-0.3,0.7-0.9,1.2-1.6,1.5c-1.7,0.8-3.7,0.2-4.6-1.5c0,0,0,0,0,0
		l-8.7-17.6c-2-4.1-7-5.8-11.1-3.8c-1.6,0.8-3,2.1-3.8,3.8c0,0-0.1,0.1-0.1,0.1l-7.2,16.9c-0.9,1.7-2.9,2.3-4.6,1.5
		c-0.7-0.3-1.2-0.9-1.5-1.5v-0.1L12.9,13.5c-0.6-1.2-2.1-1.6-3.3-1c-1.2,0.6-1.6,2.1-1,3.3L21,39c2,4.1,7,5.8,11.1,3.7
		c1.6-0.8,2.9-2.1,3.7-3.7l0.1-0.1l7.2-17c0.9-1.7,2.9-2.3,4.6-1.5c0.6,0.3,1.2,0.9,1.5,1.5l8.7,17.6c2,4.1,7,5.8,11.1,3.8
		c1.6-0.8,3-2.1,3.8-3.8l8.9-18c0.8-1.7,2.9-2.4,4.6-1.6c0.7,0.3,1.2,0.9,1.6,1.6L96.3,39c2,4.1,7,5.8,11.1,3.8
		c1.6-0.8,2.9-2.1,3.8-3.8l8.6-17.5c0.8-1.7,2.9-2.4,4.6-1.6c0.7,0.3,1.2,0.9,1.6,1.6l7.9,17.5c0,0,0,0,0,0.1
		c1.4,2.8,4.3,4.6,7.4,4.6l0,0c3.2,0,6-1.8,7.4-4.7c0,0,0-0.1,0-0.1l7.3-16.7c0.8-1.7,2.9-2.4,4.6-1.6c0.7,0.3,1.2,0.8,1.5,1.5
		l7,17.2l0.1,0.1c2,4.1,6.9,5.8,11,3.8c1.6-0.8,3-2.1,3.8-3.8c0,0,0.1-0.1,0.1-0.1l7.2-17.4c0.9-1.7,2.9-2.3,4.6-1.5
		c0.7,0.3,1.2,0.9,1.5,1.5l8.8,17.6c1.4,2.8,4.3,4.6,7.4,4.6h0.5c3.1,0,6-1.8,7.4-4.6l8.6-17.6c0.8-1.7,2.9-2.4,4.6-1.6
		c0.7,0.3,1.2,0.9,1.5,1.5l7.1,17.4c0,0,0,0.1,0.1,0.1c2,4.1,6.9,5.8,11,3.8c1.6-0.8,3-2.1,3.8-3.8l0.1-0.1l7-17.2
		c0.9-1.7,2.9-2.3,4.6-1.5c0.6,0.3,1.2,0.9,1.5,1.5l7.4,16.6V39c1.4,2.9,4.2,4.7,7.4,4.7l0,0c3.1,0,6-1.8,7.4-4.6V39l7.9-17.5
		c0.9-1.7,2.9-2.4,4.6-1.5c0.7,0.3,1.2,0.9,1.5,1.5l8.6,17.5c1.3,2.7,4,4.4,7,4.6l0,0h0.2l0,0c3-0.1,5.7-1.9,7-4.6l8.6-17.5
		c0.3-0.7,0.9-1.2,1.5-1.5c1.7-0.8,3.7-0.2,4.6,1.5l7.9,17.5V39c1.4,2.8,4.3,4.6,7.4,4.6l0,0c3.2,0,6.1-1.8,7.4-4.7v-0.1l7.3-16.7
		c0.8-1.7,2.9-2.4,4.6-1.6c0.7,0.3,1.2,0.8,1.5,1.5l7,17.2l0.1,0.1c2,4.1,6.9,5.8,11,3.8c1.6-0.8,3-2.1,3.8-3.8c0,0,0.1-0.1,0.1-0.1
		l7.2-17.4c0.9-1.7,2.9-2.3,4.6-1.5c0.7,0.3,1.2,0.9,1.5,1.5l8.7,17.6c1.4,2.8,4.3,4.6,7.4,4.6h0.5c3.1,0,6-1.8,7.4-4.6l8.7-17.6
		c0.8-1.7,2.9-2.4,4.6-1.6c0.7,0.3,1.2,0.9,1.5,1.5l7.2,17.4c0,0.1,0,0.1,0.1,0.1c2,4.1,6.9,5.8,11,3.8c1.6-0.8,3-2.1,3.8-3.8
		l0.1-0.1l7-17.2c0.9-1.7,2.9-2.3,4.6-1.5c0.6,0.3,1.2,0.9,1.5,1.5l7.6,16.7c0,0,0,0.1,0,0.1c1.4,2.9,4.2,4.7,7.4,4.7l0,0
		c3.1,0,6-1.8,7.4-4.6c0,0,0,0,0-0.1l7.9-17.5c0.8-1.7,2.9-2.4,4.6-1.5c0,0,0,0,0,0c0.7,0.3,1.2,0.9,1.5,1.5l8.6,17.5
		c2,4.1,7,5.8,11.1,3.8c1.6-0.8,2.9-2.1,3.8-3.8l8.6-17.5c0.8-1.7,2.9-2.4,4.6-1.6c0,0,0,0,0,0c0.7,0.3,1.2,0.9,1.6,1.6l8.9,18
		c2,4.1,7,5.8,11.1,3.8c1.6-0.8,3-2.1,3.8-3.8l8.8-17.6c0.8-1.7,2.9-2.4,4.6-1.5c0.7,0.3,1.2,0.8,1.5,1.5l7.2,16.9l0.1,0.1
		c2,4.1,7,5.8,11.1,3.7c1.6-0.8,2.9-2.1,3.7-3.7l12.4-23.2C639,14.6,638.6,13.1,637.4,12.5z"/>
	<path class="st0" d="M214,47.2C214,47.2,214,47.2,214,47.2h-0.6c0,0,0,0,0,0c-4.2,0-8.2-2.5-10.1-6.3l-8.8-17.5
		c-0.1-0.1-0.1-0.2-0.2-0.2c-0.1-0.1-0.2,0-0.3,0c-0.1,0-0.1,0.1-0.2,0.1l-7,17.1c-0.1,0.2-0.1,0.4-0.2,0.6c-1.1,2.2-2.9,4-5.1,5.1
		c-5.6,2.7-12.3,0.4-15-5.1l-0.2-0.4l-7-17c0-0.1-0.1-0.1-0.1-0.1c-0.1-0.1-0.2,0-0.3,0c-0.1,0-0.2,0.1-0.2,0.2l-7.3,16.8
		c-1.8,3.9-5.8,6.4-10.1,6.4c-4.3,0-8.2-2.5-10.1-6.3l-0.2-0.5l-7.8-17.2c0,0,0,0,0,0c0,0-0.1-0.1-0.1-0.1c-0.1-0.1-0.2,0-0.3,0
		c-0.1,0-0.2,0.1-0.2,0.2l-8.6,17.5c-1.1,2.2-2.9,4-5.1,5.1c-5.6,2.8-12.3,0.5-15.1-5.1L85,22.9c0-0.1-0.1-0.2-0.2-0.2
		c-0.1-0.1-0.3,0-0.3,0c-0.1,0-0.2,0.1-0.2,0.2l-8.9,18c-1.1,2.2-2.9,4-5.1,5.1c-2.7,1.3-5.8,1.5-8.6,0.6c-2.8-1-5.1-3-6.5-5.7
		l-8.7-17.6c0-0.1-0.1-0.1-0.2-0.2C46.2,23,46.1,23,46,23c-0.1,0-0.2,0.1-0.2,0.2l-7.2,17.1c-1.1,2.2-2.9,4-5.1,5.1
		c-5.6,2.8-12.3,0.5-15.1-5.1L6,17.2c-0.7-1.3-0.8-2.7-0.4-4.1C6,11.7,7,10.6,8.2,9.9c2.6-1.4,5.9-0.4,7.3,2.2l12.5,23.5
		c0,0,0,0,0.1,0c0.2,0.1,0.4,0,0.5-0.1l7-16.7c0.1-0.2,0.2-0.4,0.3-0.6c1.1-2.2,2.9-3.9,5.1-5c2.7-1.3,5.8-1.5,8.6-0.6
		c2.8,1,5.1,3,6.5,5.7l8.7,17.6c0.1,0.2,0.4,0.3,0.6,0.2c0.1,0,0.2-0.1,0.2-0.2l8.9-18c1.1-2.2,2.9-4,5.1-5.1
		c2.7-1.3,5.8-1.5,8.6-0.6c2.9,1,5.2,3,6.5,5.7l8.6,17.5c0,0.1,0.1,0.2,0.2,0.2c0.2,0.1,0.5,0,0.6-0.2l8.7-17.6
		c1.1-2.2,2.9-4,5.1-5.1c2.7-1.3,5.8-1.5,8.6-0.6c2.8,1,5.1,3,6.5,5.7l0.3,0.6v0.1l7.6,16.8c0,0.1,0.1,0.1,0.2,0.2
		c0.2,0.1,0.4,0,0.5-0.2l7.5-16.7c1.9-3.9,5.8-6.4,10.1-6.4c0,0,0,0,0,0c4.2,0,8.2,2.5,10.1,6.3l0.2,0.4l6.9,17
		c0.1,0.2,0.3,0.2,0.5,0.1c0,0,0.1-0.1,0.1-0.1l6.9-16.7v-0.4l0.4-0.6c1.1-2.2,2.9-3.9,5.1-5c2.7-1.3,5.8-1.5,8.6-0.6
		c2.8,1,5.1,3,6.5,5.7l8.7,17.6c0.1,0.1,0.2,0.2,0.4,0.2h0.5c0.2,0,0.3-0.1,0.4-0.2l8.7-17.6c1.1-2.2,2.9-4,5.1-5.1
		c2.7-1.3,5.8-1.5,8.6-0.6c2.8,0.9,5.1,2.9,6.4,5.5c0.1,0.2,0.2,0.4,0.3,0.6l7,17.1c0,0.1,0.1,0.1,0.2,0.1c0.2,0.1,0.3,0.1,0.4,0
		c0.1,0,0.1-0.1,0.2-0.2l7-17c0.1-0.1,0.1-0.3,0.2-0.4c1.9-3.8,5.9-6.2,10.1-6.2c4.3,0,8.2,2.5,10.1,6.4l0.3,0.6v0.1l7,16
		c0,0.1,0.1,0.1,0.2,0.2c0.2,0.1,0.4,0,0.5-0.2l7.9-17.6c1.1-2.2,2.9-4,5.1-5.1c5.6-2.7,12.3-0.4,15.1,5.1l8.7,17.5
		c0,0,0.1,0.1,0.1,0.1c0,0,0.1-0.1,0.1-0.1l8.7-17.6c1.1-2.2,2.9-4,5.1-5.1c5.6-2.7,12.3-0.4,15.1,5.1l0.3,0.6v0.1l7.6,16.8
		c0,0.1,0.1,0.1,0.2,0.2c0.1,0.1,0.2,0,0.3,0c0.1,0,0.2-0.1,0.2-0.2l7.4-16.7c1.9-3.9,5.8-6.4,10.1-6.4c0,0,0,0,0.1,0
		c4.2,0,8.2,2.4,10,6.2c0.1,0.1,0.1,0.3,0.2,0.4l6.8,16.7l0.5,0.5v0.1c0.1,0,0.2,0,0.2,0c0.1,0,0.1-0.1,0.1-0.1l7-17.1
		c0.1-0.2,0.2-0.4,0.3-0.6c1.1-2.1,2.9-3.9,5-5c5.6-2.7,12.3-0.4,15.1,5.1l8.8,17.6c0.1,0.2,0.3,0.2,0.4,0.2h0.6c0,0,0,0,0,0
		c0.2,0,0.3-0.1,0.4-0.2l8.7-17.6c1.1-2.2,2.9-4,5.1-5.1c2.7-1.3,5.8-1.5,8.6-0.6c2.7,0.9,5,2.8,6.3,5.4c0.2,0.3,0.3,0.6,0.4,0.9
		l7,17c0,0.1,0.1,0.1,0.1,0.1c0.1,0.1,0.2,0,0.3,0c0.1,0,0.1-0.1,0.2-0.1l7.1-17.4c1.9-3.8,5.8-6.3,10.1-6.3c0,0,0,0,0.1,0
		c4.3,0,8.2,2.5,10.1,6.4l0.3,0.6v0.1l7,16c0,0.1,0.1,0.1,0.2,0.2c0.1,0.1,0.2,0,0.3,0c0.1,0,0.2-0.1,0.2-0.2l7.9-17.6
		c1.1-2.2,2.9-4,5.1-5.1c2.7-1.3,5.8-1.5,8.6-0.6c2.8,1,5.1,3,6.5,5.7l8.6,17.5c0,0.1,0.1,0.2,0.2,0.2c0.2,0.1,0.5,0,0.6-0.2
		l8.6-17.5c1.1-2.2,2.9-4,5.1-5.1c2.7-1.3,5.8-1.5,8.6-0.6c2.9,1,5.2,3,6.5,5.7l8.9,18c0,0.1,0.1,0.1,0.2,0.2c0.2,0.1,0.5,0,0.6-0.2
		l8.7-17.6c1.1-2.2,2.9-4,5.1-5.1c2.7-1.3,5.8-1.5,8.6-0.6c2.8,0.9,5.1,2.9,6.4,5.5c0.1,0.2,0.2,0.4,0.3,0.6l7.1,16.7
		c0,0.1,0.1,0.1,0.2,0.1c0.2,0.1,0.4,0,0.5-0.1l0.1-0.3l12.4-23.2c0.7-1.3,1.8-2.2,3.2-2.6c1.4-0.4,2.9-0.3,4.1,0.4l0,0
		c2.6,1.4,3.6,4.7,2.2,7.3l-12.4,23.2c-1,2.1-2.8,3.9-5,5c-5.6,2.8-12.3,0.5-15.1-5.1l-0.1-0.3l-7.1-16.8c0-0.1-0.1-0.1-0.2-0.1
		c-0.2-0.1-0.5,0-0.6,0.2l-8.8,17.6c-1.1,2.2-2.9,4-5.1,5.1c-5.6,2.7-12.3,0.4-15.1-5.1l-8.9-18c0-0.1-0.1-0.1-0.2-0.2
		c-0.2-0.1-0.3-0.1-0.3,0c-0.1,0-0.2,0.1-0.2,0.2l-8.6,17.5c-1.1,2.2-2.9,4-5.1,5.1c-2.7,1.3-5.8,1.5-8.6,0.6c-2.9-1-5.2-3-6.5-5.7
		l-8.6-17.5c0-0.1-0.1-0.2-0.2-0.2c-0.1-0.1-0.3-0.1-0.3,0c-0.1,0-0.2,0.1-0.2,0.2l-7.9,17.6c-1.9,3.8-5.8,6.3-10.1,6.3c0,0,0,0,0,0
		c-4.3,0-8.3-2.5-10.1-6.4l-0.2-0.5L488,23.4c0,0-0.1-0.1-0.1-0.1c-0.2-0.1-0.4,0-0.5,0.1l-7.2,17.4c-1.1,2.2-2.9,4-5.1,5.1
		c-2.7,1.3-5.8,1.5-8.6,0.5c-2.8-1-5.1-2.9-6.4-5.6c-0.1-0.2-0.2-0.4-0.3-0.6l-7-17.1c0-0.1-0.1-0.1-0.2-0.1c-0.2-0.1-0.5,0-0.6,0.2
		l-8.7,17.6c-1.9,3.8-5.8,6.3-10.1,6.3c0,0,0,0,0,0h-0.5c0,0,0,0,0,0c-4.2,0-8.2-2.5-10.1-6.3l-8.7-17.6c0-0.1-0.1-0.2-0.2-0.2
		c-0.1-0.1-0.2-0.1-0.3,0c-0.1,0-0.1,0.1-0.2,0.1l-7,17.1c-0.1,0.2-0.2,0.5-0.3,0.7c-1.1,2.1-2.9,3.9-5.1,5
		c-2.7,1.3-5.8,1.5-8.6,0.5c-2.8-1-5.1-3-6.5-5.7l-0.2-0.3l-6.9-17c0,0-0.1-0.1-0.1-0.1c-0.1-0.1-0.2,0-0.3,0
		c-0.1,0-0.2,0.1-0.2,0.2l-7.3,16.8c-1.8,3.9-5.8,6.4-10.1,6.4c0,0,0,0,0,0c-4.2,0-8.2-2.5-10.1-6.3l-0.3-0.6v-0.1l-7.6-16.8
		c-0.1-0.2-0.4-0.3-0.6-0.2c-0.1,0-0.1,0.1-0.2,0.2l-8.6,17.5c-1.8,3.7-5.5,6.1-9.5,6.3l-0.5,0l-0.1,0c-4.1-0.2-7.7-2.6-9.5-6.3
		L305,22.8c0-0.1-0.1-0.2-0.2-0.2c-0.2-0.1-0.4,0-0.5,0.2l-7.9,17.6c-1.9,3.8-5.8,6.3-10.1,6.3c0,0,0,0,0,0c-4.3,0-8.3-2.5-10.1-6.4
		l-0.3-0.6v-0.1l-7.1-16c0-0.1-0.1-0.1-0.2-0.2c-0.2-0.1-0.4,0-0.5,0.1l-7.1,17.3c-1.1,2.3-2.9,4.1-5.2,5.2
		c-2.7,1.3-5.8,1.5-8.6,0.5c-2.7-0.9-5-2.9-6.3-5.4c-0.2-0.3-0.3-0.5-0.4-0.8l-7-17c0-0.1-0.1-0.1-0.2-0.1c-0.2-0.1-0.5,0-0.6,0.2
		L224.1,41C222.3,44.8,218.3,47.2,214,47.2z M184.4,18.2C184.4,18.3,184.4,18.3,184.4,18.2L184.4,18.2z"/>
</g>
</svg>
