<?xml version="1.0" encoding="utf-8"?>
<!-- Generator: Adobe Illustrator 25.2.1, SVG Export Plug-In . SVG Version: 6.00 Build 0)  -->
<svg version="1.1" id="圖層_1" xmlns="http://www.w3.org/2000/svg" xmlns:xlink="http://www.w3.org/1999/xlink" x="0px" y="0px"
	 viewBox="0 0 512 487.8" style="enable-background:new 0 0 512 487.8;" xml:space="preserve">
<style type="text/css">
	.st0{fill:#FFFFFF;}
</style>
<path class="st0" d="M0,219.9v-25c0.4-1.3,0.7-2.6,0.9-3.9c2.3-23.4,9.4-46.2,20.9-66.7c24-43.4,59.9-74,104.1-95.2
	c54.2-26,111.4-34,170.8-26.4C347,9.2,393,26.8,433.3,58.2c35.6,27.8,61.5,62.6,73.1,106.9c2.6,9.8,3.8,19.9,5.6,29.8v25
	c-0.3,1.6-0.6,3.2-0.9,4.8c-2.5,11.9-4,24-7.6,35.5c-9.9,31.7-29.3,57.7-51.7,81.6c-27.2,28.9-58.2,53.3-90.2,76.5
	c-30.6,22.2-62,43.2-95.5,61c-6.9,3.6-14.3,6.3-21.8,8.2c-6.7,1.7-10.9-2.3-11.1-9.2c0-1.7,0.2-3.3,0.4-5c1.5-11.5,3.6-23,4.4-34.6
	c1-14.4-2.7-19.6-16.8-23.6c-8.1-2.3-16.6-3.4-24.9-5c-51.1-10-96.8-30.9-135-66.9c-27.2-25.7-46.7-56.3-55.9-92.8
	C2.9,240.3,1.8,230,0,219.9z M254.4,201.9l1.2-0.3c2.6,3.5,5.1,6.9,7.7,10.4c14.2,19.3,28.4,38.7,42.6,58c4,5.4,9.6,7.3,15.4,5.6
	c5.7-1.6,9.6-6.7,9.6-12.6c0.1-34,0.1-68,0-102c0.1-6.7-4.8-12.3-11.4-13.2c-8.7-1.2-15.4,4.8-15.5,14c-0.1,18.7,0,37.3,0,56
	c0,1.5-0.1,3.1-0.3,5.7c-7-9.4-13.2-17.8-19.5-26.2c-10.7-14.5-21.4-28.9-32.1-43.4c-3.3-4.5-7.6-6.9-13.4-6.1
	c-4.8,0.6-8.8,3.9-10.2,8.5c-0.8,2.7-1.1,5.5-0.9,8.4c-0.1,31.3-0.1,62.7,0,94c0,2,0,4,0.2,6c0.8,6.4,6.1,11.2,12.6,11.4
	c8.2,0.3,13.8-5.5,13.9-14.8c0.1-18,0-36,0-54L254.4,201.9z M376,174.3h5.8c10.2,0,20.3,0.1,30.5-0.1c8.6-0.2,14.3-5.8,14.3-13.4
	s-5.8-13.2-14.4-13.3c-16.2-0.2-32.3-0.2-48.5,0c-9.6,0.1-14.7,5.3-14.7,15c0,32.8,0,65.6,0,98.4c0,9.9,5.2,15,15.1,15.1
	c15.8,0.1,31.6,0.1,47.5,0c1.8,0.1,3.6-0.1,5.4-0.6c6.2-1.8,10.2-7.7,9.5-14.1c-0.7-7-5.8-11.8-13.6-12.1c-10.5-0.3-21-0.1-31.5-0.1
	h-5.2v-24h5.8c10.5,0,21,0.1,31.5-0.1c7.2,0.1,13.1-5.7,13.2-12.9c0.4-7-5-13-12-13.5c-7.6-0.6-15.3-0.3-23-0.4
	c-5.1,0-10.2,0-15.5,0L376,174.3z M118.2,249.1v-6.8c0-27,0-54,0-81c0-7.1-4.2-12.3-10.2-13.6c-6.4-1.4-12.8,1.6-15.2,7.6
	c-1,2.7-1.4,5.5-1.4,8.3c-0.1,32-0.1,64,0,95.9c0,1.8,0.1,3.7,0.4,5.5c1.1,6,5.9,10.7,12.1,10.7c17.7,0.2,35.3,0.3,53,0
	c7.3-0.1,12.5-6.4,12.3-13.7c-0.2-7.7-6-12.9-14.8-12.9C142.5,249.1,130.7,249.1,118.2,249.1z M208.4,211.9L208.4,211.9
	c0-14,0-28,0-42c0-3.5,0.1-7-0.2-10.5c-0.6-6.8-6.3-12-13.1-11.9c-6.9,0-13.1,4.9-13.1,11.8c-0.2,35-0.2,70,0,105
	c0.1,6.9,6.4,11.7,13.2,11.6c7.8-0.1,13.1-5.8,13.1-14.6C208.5,244.9,208.4,228.4,208.4,211.9z"/>
</svg>
