<svg id="圖層_1" data-name="圖層 1" xmlns="http://www.w3.org/2000/svg" viewBox="0 0 274.56 274.54"><defs><style>.cls-1{fill:#a67e4f;}</style></defs><g id="组_82" data-name="组 82"><g id="组_81" data-name="组 81"><path id="路径_98" data-name="路径 98" class="cls-1" d="M469.57,613.6,435.21,599a8.6,8.6,0,0,0-6.9,15.74h0l34.31,14.58a8.56,8.56,0,0,0,7.05-15.6h-.34Z" transform="translate(-389 -487.47)"/></g></g><path class="cls-1" d="M663.51,547.27a8.35,8.35,0,0,0-.44-2.67,10.17,10.17,0,0,0-.78-1.26l-.53-.88a8.83,8.83,0,0,0-3.6-2.77l-137.42-51.6a8.46,8.46,0,0,0-6.37,0L394.2,539.55l-.29.24a8,8,0,0,0-3,2.53l-.68.92a4.55,4.55,0,0,0-.54.83,7.88,7.88,0,0,0-.68,3.35V701.9a8.6,8.6,0,0,0,5.2,7.92l120.12,51.51a8.78,8.78,0,0,0,6.42.14H521l137-51.36a8.56,8.56,0,0,0,5.54-8V547.66A3.91,3.91,0,0,1,663.51,547.27ZM509.12,740.77l-103-44.12v-136l103,44ZM419.18,547.66l98.55-42.23,112.68,42.23-26.58,10.06-58.31,21.77-15.21,5.78-12.39,4.86Z" transform="translate(-389 -487.47)"/></svg>