<svg id="圖層_1" data-name="圖層 1" xmlns="http://www.w3.org/2000/svg" viewBox="0 0 453.45 479.13"><defs><style>.cls-1{fill:#fff;}</style></defs><path class="cls-1" d="M272.65,34.13V57.39h8q79.05,0,158.1.06a90.09,90.09,0,0,1,16.33,1.38q25.49,4.77,25.63,31.08c.14,26.23,0,52.47,0,78.71,0,17.56.06,35.13,0,52.7-.05,10.35-3.87,14.45-14.15,15.38a44.48,44.48,0,0,1-7.48,0c-11.8-1-15.75-5.17-15.75-16.86q0-60.23,0-120.46c0-11.49-3.2-15-14.44-15.06q-76.31-.13-152.63,0c-1.09,0-2.18.18-4.06.36V93q0,75.63,0,151.27c0,6.62-.17,13.59-7.38,16.17-8.75,3.14-18.44,4.25-25.95-2.31-3.1-2.72-4.35-8.95-4.37-13.59-.3-50.42-.19-100.84-.19-151.26V84.31H82.07c-1.83,0-3.66,0-5.47.1-8.85.63-12.17,4.1-12.18,13q0,59.55,0,119.1c0,17.4-14.14,26.15-29.63,17.65-3.46-1.89-7-7.37-7-11.23-.48-45.4-.47-90.81-.21-136.21.09-15.16,10.28-25.5,26.63-28.08a101.4,101.4,0,0,1,15.66-1.21q77.68-.14,155.37-.06h8.65V34.13h-8.24q-73.92,0-147.84,0c-11.91,0-17.25-5.92-16.08-17.48.71-6.91,5.15-11.14,12.1-11.47.91,0,1.82,0,2.74,0q177.61,0,355.22,0c12.35,0,18.75,10.43,13.38,21.65-2.89,6-8.06,7.38-14.17,7.36-26.47-.08-52.93,0-79.4,0H272.65Z" transform="translate(-27.37 -5.14)"/><path class="cls-1" d="M169.1,344.41v30.11c15.63,0,30.85,0,46.07,0,9.39,0,13.21,4.43,12.21,13.75-.79,7.39-4.38,10.74-12.27,10.83-13,.15-26,0-39,.07-2.22,0-4.44.18-7,.29v40.27c10.61-2.34,20.78-4.49,30.89-6.85,7.1-1.65,14.1-3.7,21.19-5.37,9.24-2.18,13.9.42,16.23,8.74s-1.06,15.29-9.46,17.69c-12.47,3.55-25,7.16-37.75,9.42-40.59,7.18-81.29,13.76-121.95,20.5a47.58,47.58,0,0,1-8.19.37C51,484.16,45.77,479,45.48,469.79c-.27-8.33,4.38-13.38,13.19-14.31,2.72-.28,5.44-.5,8.17-.75l8.52-.84v-7.14q0-36.62,0-73.23c0-10.45,4.18-14.15,15.56-14.06,10.63.09,14.54,3.92,14.54,14.34q0,34.21,0,68.44v8.44c11.06-1.74,21.34-3.24,31.56-5.11,1.09-.2,2.54-2.55,2.55-3.91.14-32.12.11-64.24.11-97.25H112.75c-3,0-5.93,0-8.9,0-22.5-.13-32.18-9.55-32.56-31.92-.17-10-.25-20.08,0-30.11.62-20.54,9.29-30,29.8-30.4q48.22-.91,96.49,0c20.8.37,29.6,10.13,29.89,30.92q.21,15,0,30.11c-.32,21.1-10,30.88-31.1,31.37C187.52,344.58,178.64,344.41,169.1,344.41ZM148.57,320.2v-.07c13.45,0,26.91.19,40.35-.07,7.77-.16,10.19-2.89,10.3-10.5.11-7.29.13-14.59,0-21.88-.16-8.08-2.57-10.46-10.76-10.77-4.56-.17-9.12,0-13.68,0-21.21,0-42.41-.09-63.62.05-9.22.06-11.29,2.29-11.37,11.34-.06,7.07-.08,14.14,0,21.2.11,8.47,2,10.58,10.47,10.69C123,320.32,135.8,320.2,148.57,320.2Z" transform="translate(-27.37 -5.14)"/><path class="cls-1" d="M320.21,329.94c-11.58-8.86-21.6-16.71-31.9-24.18-1.2-.88-4.14-.2-5.86.62-7.58,3.62-14.74,8.25-22.55,11.19-9.72,3.67-17.76.05-20.36-7.83-3.11-9.44,1.09-16.93,11.67-20.27a78.93,78.93,0,0,0,32.37-19.74c11.32-11.27,24.27-17.35,40.94-16.82,27.57.88,55.2.22,82.8.24,20.34,0,29.78,13.52,22,32.47-6.31,15.38-17.86,26.79-31,36.65-3.61,2.72-7.37,5.24-12.66,9,13.2,3.78,24.83,7.47,36.65,10.4,9.49,2.36,19.19,3.92,28.84,5.61,9.85,1.73,15.31,7.82,14.41,16.53-.86,8.3-8.28,14-18,12.7-31-4.25-61.5-10.8-89.63-25.3a11.06,11.06,0,0,0-10.07-.59c-29.22,10.88-58.28,22.36-89.27,27.47a62,62,0,0,1-10.89.73c-8.48-.14-13.6-4.44-14.91-12.17-1.27-7.5,2.64-15,10.34-17.23,8.92-2.63,18.25-3.89,27.28-6.2C286.72,339.07,302.85,334.59,320.21,329.94Zm-15.3-43.79c15.52,10.51,30.13,20.48,44.86,30.25,1.23.81,3.85,1,4.94.27,12.67-8.84,25.44-17.56,37.46-27.22,2.55-2.05,3.52-8.1,2.61-11.63-.54-2.07-6.21-3.88-9.62-4-17.3-.39-34.63.33-51.92-.35C322.18,273.07,314.07,277.72,304.91,286.15Z" transform="translate(-27.37 -5.14)"/><path class="cls-1" d="M352.92,381.6q32.85,0,65.7,0c15.22,0,25.85,10.35,26.07,25.67q.33,23.94,0,47.9c-.18,15.54-10.45,25.65-25.95,25.67q-65,.07-130,0c-18.63,0-27.77-9.23-27.85-27.7-.06-14.15.25-28.3-.08-42.43-.44-19.3,13.38-30,29.19-29.32C310.91,382.31,331.93,381.6,352.92,381.6Zm.53,23c-16.87,0-33.75-.06-50.62,0-8.65,0-11.29,2.74-11.38,11.55-.1,9.57,0,19.15,0,28.73,0,10.75,2.31,13.05,13.31,13.07,16,0,31.93,0,47.89,0,16.64,0,33.29.07,49.93,0,7.89-.05,11.78-2.88,11.95-9.2.3-11.17.38-22.36-.05-33.51-.32-8.29-3.24-10.59-11.75-10.61C386.29,404.61,369.87,404.64,353.45,404.65Z" transform="translate(-27.37 -5.14)"/><path class="cls-1" d="M204.38,219.76H170.07l-18.35-45.88c-4.53,11.39-8.47,21.26-12.4,31.14-6,15-6,15-22.32,15H98.79c2-4.08,3.72-7.43,5.4-10.78,10.56-20.92,21-41.89,31.83-62.66,1.14-2.16,4.56-4.21,7.06-4.38,7.23-.49,16-2.44,21.39.82s7.36,12,10.67,18.5q13.23,25.8,26.3,51.69C202.43,215.2,203.24,217.24,204.38,219.76Z" transform="translate(-27.37 -5.14)"/><path class="cls-1" d="M305.52,220.07c13.11-25.87,25.52-50.45,38.11-74.93.74-1.43,3-2.16,4.59-3,.53-.29,1.37.07,2-.07,16.53-3.39,25.89,3.18,32,19.13,6.43,16.7,16,32.2,24.15,48.24,1.62,3.18,3.11,6.43,5.15,10.65-11.48,0-21.88.17-32.26-.21-1.43-.05-3.28-2.65-4-4.45-4.64-11.14-9-22.39-13.5-33.59-.82-2-1.76-4-3.29-7.53-5.67,14.13-11.07,26.77-15.75,39.68-1.81,5-4.3,6.5-9.4,6.25C324.5,219.75,315.62,220.07,305.52,220.07Z" transform="translate(-27.37 -5.14)"/></svg>