<svg xmlns="http://www.w3.org/2000/svg" viewBox="0 0 361.38 244.3"><defs><style>.cls-1{fill:#a58553;}</style></defs><g id="圖層_4" data-name="圖層 4"><path class="cls-1" d="M353.39,27.85c-4.84,1.1-9.18,6.48-9.64,12l-2,24c-.46,5.48,3.12,9.07,8,8s9.18-6.45,9.64-11.93l2-24.09C361.81,30.34,358.23,26.76,353.39,27.85Z"/><path class="cls-1" d="M320.05.24l-9.45,2.2-9.75,2.23L288,7.61c-5.36,1.23-9.57-.06-9.34-2.87s-3.55-4.19-8.39-3.1-9,4.3-9.21,7.11L260.59,14c0,.07-4.39,1.14-9.75,2.39L232,20.75A14.68,14.68,0,0,0,221.46,33l-2,24c-.46,5.48,3.12,9.08,8,8s9.18-6.45,9.64-11.94l.69-8.12a14.45,14.45,0,0,1,10.6-12.11l52.38-11.54c5.37-1.18,9.38,2.33,8.92,7.81L309,36c-.46,5.48,3.12,9.08,8,8s9.18-6.45,9.64-11.94l2-24.09C329.12,2.52,325.25-1,320.05.24Z"/><path class="cls-1" d="M277.52,60.5c-5.36,1.22-9.56,0-9.34-2.64s4.81-5.8,10.19-7l12.5-2.68c5.38-1.16,10-6,10.2-10.7s-4-7.68-9.36-6.56l-38.54,8c-5.38,1.12-10,6-10.31,10.84s1.44,8.38,3.82,7.87,4,3.55,3.55,9l-2.06,26c-.43,5.48,3.17,9.08,8,8s9.11-6.33,9.49-11.66,1.82-9.94,3.19-10.24,2.21,3.93,1.85,9.42L269.5,107c-.36,5.48,3.08,9.09,7.64,8s8.71-6.45,9.21-11.93l1.71-18.75c.49-5.48,2.1-10.23,3.56-10.55s2.35,3.9,2,9.39L291.4,116c-.37,5.49,3.07,9.09,7.63,8s8.69-6.45,9.16-11.93L311,79.28c.47-5.48,2.06-10.23,3.52-10.55s2.28,3.89,1.8,9.37l-4.54,52.25a15.35,15.35,0,0,1-10.53,12.54l-6.71,1.78c-5.31,1.42-9.77,0-9.9-3.25s-4-3.43-8.69-.48L259.7,151.23c-4.64,2.94-4.46,7.44.41,10l17,8.93c4.87,2.55,8.75,2,8.62-1.15s4.13-6.9,9.46-8.24l14.24-3.59c5.34-1.34,9.7-2.46,9.71-2.49s1.78-.45,3.95-.93,4.34-5.37,4.81-10.85l7.46-85.85c.47-5.48-3.52-9-8.88-7.74Z"/></g><g id="圖層_2" data-name="圖層 2"><path class="cls-1" d="M47.9,127.41c2.06-5.1-.43-8.36-5.53-7.26s-7.57-2.15-5.5-7.25l1.29-3.14c2.07-5.1-.61-8.24-6-7L24,104.69c-5.36,1.25-10.5,6.7-11.43,12.13l-4,23.56c-.93,5.42,1.5,8.51,5.41,6.85s6.15,1.4,5,6.78L.54,240.11c-1.15,5.38-.4,5.6,1.66.5Z"/><path class="cls-1" d="M40.92,206.05c-5.39,1.12-11.11,6.13-12.72,11.13s1.48,8.21,6.87,7.14l66.45-13.2c5.4-1.07,10.17-6,10.62-11s-3.61-8.15-9-7Z"/><path class="cls-1" d="M60.5,162.86c-4.88,1-10.91,5.78-13.41,10.68l-9.22,18.12c-2.5,4.9-.43,8,4.58,6.91s11.15-6,13.61-10.93L64.89,170C67.35,165.12,65.38,161.89,60.5,162.86Z"/><path class="cls-1" d="M111.42,92.16c5.38-1.16,10.21-6,10.74-10.66s-3.45-7.65-8.84-6.55l-1.52.31c-5.39,1.1-9.62-.06-9.4-2.58s-4-3.57-9.35-2.35l-1.17.27c-5.36,1.23-9.92,4.4-10.14,7s-4.36,5.81-9.19,7-10.83,6.15-13.31,11-.12,7.81,5.26,6.65l5.34-1.15c5.38-1.16,9.56,0,9.29,2.55s-1.74,5-3.27,5.36-5.63,1.22-9.09,1.86S60,116.55,59.48,122l-2.67,27c-.55,5.48-.28,9.79.58,9.58a12.31,12.31,0,0,1,1.57-.31s3.34-.75,7.42-1.71,7,2.71,6.39,8.18l-1.94,18.62c-.57,5.47,3.37,9.1,8.76,8.07a14.47,14.47,0,0,0,10.92-11.81L92.71,160c.61-5.46,3.56-10.52,6.56-11.23s7.66-1.72,10.38-2.24,5.4-5.44,6-10.91l2.78-27c.56-5.47-3.36-9-8.73-7.73l-.83.19c-5.36,1.22-9.53.27-9.27-2.11s4.89-5.27,10.27-6.42ZM76.21,131.7c-.48,4.66-1.88,8.72-3.11,9s-1.93-3.24-1.56-7.87,1.77-8.7,3.11-9S76.7,127,76.21,131.7Zm23.4-13.95c1.21-.3,1.83,3.23,1.37,7.85s-1.88,8.65-3.15,9-1.9-3.21-1.38-7.85S98.39,118,99.61,117.75Z"/><path class="cls-1" d="M113.84,161.84c-.8-5.44-4.76-9.3-8.78-8.58s-6.75,5.78-6,11.23L100.37,175c.71,5.46,4.69,9.23,8.86,8.38s6.92-6,6.11-11.44Z"/><path class="cls-1" d="M26.54,80.34C21.15,81.43,16.3,86,15.77,90.58s3.39,7.17,8.73,5.85l9.3-2.3C39.14,92.81,46.06,88,49.19,83.49l.52-.76c3.13-4.52,1.27-7.34-4.12-6.24Z"/></g><g id="圖層_3" data-name="圖層 3"><path class="cls-1" d="M145.36,106.52a14.63,14.63,0,0,0-10.71,12.1L128,189.42c-.52,5.48,1,9.59,3.27,9.13l12.44-2.39c4.53-.86,10.47-2,13.22-2.44l8.44-1.51c1.9-.35,3.82-5.11,4.27-10.6l5.9-71.92c.45-5.49-3.58-9-8.95-7.83Zm11.35,67.17c-.29,3-3.69,6.23-7.56,7.11s-6.83-.86-6.58-3.84,3.65-6.18,7.55-7.1S157,170.66,156.71,173.69ZM159,149.13c-.3,3.22-3.77,6.58-7.72,7.47s-6.94-1-6.68-4.14,3.74-6.54,7.72-7.48S159.32,145.91,159,149.13Zm2.45-26c-.36,3.83-3.94,7.7-7.95,8.6s-7-1.44-6.72-5.21,3.89-7.64,7.95-8.6S161.83,119.3,161.47,123.12Z"/><path class="cls-1" d="M160,208.18c-1.9-5.16-7.31-8.65-12-7.75s-9.79,5.95-11.29,11.24L132,228.09c-1.5,5.29.92,8.68,5.39,7.53s8.81-4.49,9.64-7.43,2.24-3.44,3.13-1.1,5.05,3.32,9.24,2.2,6.07-6.26,4.16-11.42Z"/><path class="cls-1" d="M228.29,134.38c-.31,3-4.52,6.41-9.36,7.49s-8.55-.58-8.23-3.68-.82-5.35-2.52-5-3.38,3.41-3.72,6.78-4.59,7-9.43,8.09-8.52-.85-8.17-4.28-1.56-5.78-4.26-5.21-5.07,4.31-5.28,8.33,4,6.4,9.41,5.3l40.7-8.34c5.39-1.1,10.17-5.4,10.63-9.56s-1.43-7.08-4.19-6.5A7.82,7.82,0,0,0,228.29,134.38Z"/><path class="cls-1" d="M195,148.06c4.84-1.09,9.08-4.72,9.43-8.09s.76-7.51.93-9.21a4.87,4.87,0,0,1,3.43-3.87,2.11,2.11,0,0,1,2.79,2.43c-.18,1.77-.59,5.76-.91,8.87s3.38,4.76,8.23,3.68,9-4.46,9.36-7.49.73-7.16.94-9.16a5.41,5.41,0,0,1,3.65-4.46c1.81-.46,3.66-4.24,4.11-8.4s-.67-7.17-2.51-6.69-3.2-.61-3-2.42a5.12,5.12,0,0,1,3.47-4.13c1.73-.46,3.51-4.24,4-8.4s-.61-7.16-2.37-6.69-3.07-.45-2.9-2.06-3.66-2-8.5-.94-8.95,3.5-9.13,5.33a5.19,5.19,0,0,1-3.47,4.18c-1.72.47-3-.54-2.82-2.23s-3.64-2.19-8.48-1.09-9,3.56-9.15,5.48-2.24,4-4.54,4.61-4.37,4.43-4.58,8.44,1.33,6.85,3.43,6.29,3.67.41,3.49,2.15a5.31,5.31,0,0,1-3.84,4.07c-1.94.51-3.7,4.21-3.91,8.22s1,7,2.76,6.51,3,.4,2.88,1.87l-.92,8.92C186.51,147.21,190.19,149.14,195,148.06Zm12.53-38.52a5,5,0,0,1,3.45-4.05,2.09,2.09,0,0,1,2.79,2.41,5,5,0,0,1-3.45,4A2.1,2.1,0,0,1,207.56,109.54Z"/><path class="cls-1" d="M234.59,179.93a10,10,0,0,0,7.81-11.74l-1.65-8.09A9.9,9.9,0,0,0,229,152.41l-34.25,7.39a10,10,0,0,0-7.64,11.88l1.57,7.14a10.29,10.29,0,0,0,11.95,7.83Z"/><path class="cls-1" d="M197.07,192.06a10.16,10.16,0,0,1-11.87-7.83l-1.5-7.14c-1.14-5.39-3.55-5.54-5.38-.36l-1.11,3.16c-1.82,5.19-1.92,9.18-.21,8.86s2.57,3.88,1.92,9.34l-1.24,10.39c-.65,5.47.57,9.59,2.71,9.17s3.78.54,3.63,2.13,2.83,2.3,6.62,1.57,7-2.65,7.2-4.26,4.21-3.69,9-4.62,8.51-.26,8.35,1.49,2.81,2.59,6.6,1.85,7.11-3,7.4-5.08,1.49-3.94,2.68-4.17,3.16-4.82,4.37-10.18l.65-2.89c1.21-5.37-2.21-8.88-7.61-7.81Z"/><path class="cls-1" d="M219.91,155.74c.09-3-3.17-4.86-7.23-4s-7.43,4-7.49,7.1,3.2,4.89,7.24,4S219.83,158.79,219.91,155.74Z"/><path class="cls-1" d="M187.49,137.54c-5.38,1.13-10,5.34-10.17,9.36s4,6.4,9.41,5.3l40.7-8.34c5.39-1.1,10.17-5.4,10.63-9.56s-3.57-6.63-8.95-5.5Z"/></g></svg>