<?xml version="1.0" encoding="utf-8"?>
<!-- Generator: Adobe Illustrator 25.2.1, SVG Export Plug-In . SVG Version: 6.00 Build 0)  -->
<svg version="1.1"
	 id="svg2" xmlns:cc="http://creativecommons.org/ns#" xmlns:dc="http://purl.org/dc/elements/1.1/" xmlns:rdf="http://www.w3.org/1999/02/22-rdf-syntax-ns#" xmlns:svg="http://www.w3.org/2000/svg"
	 xmlns="http://www.w3.org/2000/svg" xmlns:xlink="http://www.w3.org/1999/xlink" x="0px" y="0px" viewBox="0 0 270 365.2"
	 style="enable-background:new 0 0 270 365.2;" xml:space="preserve">
<style type="text/css">
	.st0{fill:#FFFFFF;}
</style>
<g id="g3794" transform="matrix(0.12362381,0,0,0.12362381,-59.804737,-14.98161)">
	<path id="path6" class="st0" d="M1532.8,122.3c-138.1,12.1-244.2,92.1-318.5,240.5c-49.8,99.5-84.6,242.2-88.6,363.4l-0.8,23.5
		l-244.5,0.4c-267.1,0.4-249.7,0-270.4,7.5c-23.2,8.5-41,25.9-50,49.2c-5.8,14.9-7.8,26.5-7.8,46.6c-0.1,12.2,14.9,223.4,45.9,649.4
		c25.2,347.1,46.7,640,47.9,650.7c2.2,23.1,7.4,49.9,13.6,70.6c28.1,92.9,83.7,150.1,165,170c29.6,7.2-21.4,6.8,741.6,6.8
		c758.7,0,707.6,0.4,736.9-6.4c45.9-10.8,87.2-36.1,117-71.8c39.7-47.8,65.9-118.1,71.2-191.9c0.8-10,5-68.5,9.5-130
		c4.5-61.5,24.9-338.9,45.1-616.2c20.4-277.4,37.2-512.4,37.6-522.1c2.2-60.5-22.3-97.4-73.2-110c-7.5-1.9-30.6-2.1-254.6-2.5
		l-246.4-0.4l-1.5-27.6c-7.9-144.5-52.5-295.4-119-402.4c-22.9-37-44.2-64.4-71.8-92c-63.5-63.6-136-98.2-221.2-105.5
		C1578.7,120.8,1550.1,120.8,1532.8,122.3L1532.8,122.3z M1586.7,236.1c78.4,8,141.4,48.4,192.7,123.6c48.4,71,84,173.2,103.2,296.2
		c4,25.9,8.2,61.4,9.6,81.5l0.9,12.2h-326.5c-179.5,0-326.4-0.4-326.4-1c0.4-19.4,5.5-70.9,10.1-102.7
		c24.1-165.5,80.7-289,162.4-354.6c36.6-29.5,81.2-48.5,126.9-54C1562.8,234.5,1569.7,234.3,1586.7,236.1L1586.7,236.1z
		 M1633.4,1037.8c69.2,9.5,133.7,32.8,190.1,68.5c23.8,15,30.6,23.8,31.5,39.9c1.4,22.7-15.9,43.5-36.1,43.5
		c-8.2,0-13.2-2.4-35.4-16.6c-16-10.4-44.4-25.2-62.6-32.7c-59.8-24.9-124.6-34.4-178.6-26.2c-85.1,12.9-160,67.5-182.4,133.1
		c-9.4,27.6-10.6,59.8-3.2,86.2c12.5,45.5,53.7,84.1,131.1,123c31.2,15.7,50.5,23.9,104.6,44c86.7,32.1,143.5,59.1,191.6,91.1
		c44.5,29.6,82.6,67.7,105.7,105.7c42.2,69.4,45.2,159,7.8,234.2c-30.2,60.5-88.2,106.7-166.6,132.9
		c-80.2,26.9-169.4,29.5-259.4,7.6c-72.4-17.6-148.7-53.8-209.9-99.1c-20.6-15.4-27.2-26.5-26.1-43.4c1.4-18.4,17.1-33.1,37.1-34.6
		c10.6-0.8,13.9,0.8,32.4,13.9c79,56.8,170,92.1,256.5,99.8c21.4,1.9,68.4,0.7,86.2-2c45.1-7,87.1-22.6,121.7-45.6
		c27-18,46.4-39.5,60-67.1c12.6-25.2,17.4-45.7,17.4-73.5c-0.1-46.7-18-85.6-57.9-125.7c-27.2-27.2-58-48.6-102.5-71.1
		c-36-18-63.1-29.5-147.6-62.4c-45.7-17.7-67.1-27.1-92.6-40.7c-89.9-48.2-139.4-96.6-160.2-156.7c-8.5-24.4-10-34.8-10-66.4
		c0-26,0.2-29.4,3.5-44.1c16.2-75.5,62.9-137.4,133.9-177.5c36.6-20.6,83.2-34.7,131.2-39.6
		C1561.7,1034.3,1615.8,1035.3,1633.4,1037.8L1633.4,1037.8z"/>
	<path id="path8" class="st0" d="M2275.7,2584.6c-3,1.4-6.4,4.2-7.9,6.6c-2.4,4-2.5,6.1-2.5,55.6v51.6h-16.4h-16.2l0.8-6.6
		c0.4-3.5,0.9-15.8,1-27.1c0.2-19.9,0.1-20.8-2.6-24.8c-8-11.1-26.4-10.5-31.9,1.4c-1.2,2.9-2,10.6-2.6,26.5
		c-0.7,24.6-2,36.9-5.9,60.6c-5.2,32-16.5,71.6-27.9,98.6c-2.5,5.9-4.4,10.8-4.1,10.9c2.6,2.4,30.1,17.9,30.9,17.4
		c1.8-1.1,13.2-25.8,18-38.5c6.9-18.5,12.9-40.1,16.5-60c1.8-9.8,3.5-18.5,3.8-19.4c0.2-1.1,5.1-1.5,18.6-1.5h18.1v79.2v79.4l-4,3.1
		c-15.8,11.9-62.2,36.6-86.4,45.9c-8.6,3.4-10.9,4.8-10.4,6.4c1,4.1,14.6,28.5,16,28.5c5.9,0,61.2-25.6,77.9-36l6.2-3.9l0.4,68
		l0.2,68.1h18.1h18.1v-79.9v-80l15.1-12.1c16.5-13.2,41.8-35.9,45.9-41.1l2.6-3.4l-13.6-11.7c-7.5-6.5-14-11.7-14.4-11.7
		c-0.5,0-8.1,6.9-17,15.2c-8.9,8.5-16.8,15.5-17.4,15.8c-0.9,0.2-1.2-22.8-1.2-64.6v-65.1h28.8h28.8v-18.8v-18.8h-28.8h-28.8v-51.2
		c0-56.1,0-55.9-7.2-61.1C2288.8,2582.2,2281.9,2581.7,2275.7,2584.6L2275.7,2584.6z"/>
	<path id="path10" class="st0" d="M2414.1,2584.4c-7.8,4.2-10,9-10,21.4c0,64.8-22.9,137.2-59.1,187.9l-7,9.6l13.6,10l13.6,10
		l4.2-5.2c26-32.8,49.6-82.4,61-128.7l2.6-10.9h19.4h19.2l-0.8,4.6c-0.5,2.6-2.5,13.1-4.5,23.5c-17.1,87.5-59.2,165.1-117.5,216.6
		c-7.5,6.6-13.6,12.2-13.6,12.7c0,1.2,21.2,27.5,22.3,27.5c0.6,0,4.4-2.4,8.5-5.1c42.7-29.9,83.1-82.9,108.5-142.5
		c8.1-19.1,17.5-47.2,23.1-69.6c4.1-16.6,6.2-27.6,12.1-63.7l0.6-4h22.4h22.5v3c0,8-2.7,37.1-5.1,52.6
		c-11,75.5-40.2,149.1-82.1,206.7c-24.9,34.2-54.5,64.5-88,89.7c-7.7,6-14.1,11.1-14.1,11.5c0,1.1,18.1,26.2,19.6,27.1
		c1.2,0.8,17.5-9.5,30.4-19.4c14.2-10.8,31.4-26.1,45.1-40.4c66-68.8,108.9-158,125.5-261.6c2.9-18.4,6.2-49.4,6.2-58.6
		c0-10.9-0.1-10.8,13.1-10.8c13.1,0,17.8,2.1,22.4,10c2.6,4.4,2.6,5.5,2.6,131.2c0,137.6,0.2,132.4-7,151.4
		c-13.8,35.9-49.2,62.5-87.6,65.6l-9.8,0.9v18.5v18.6h4.9c15.4,0,39.1-5.9,56-13.8c34.5-16.1,63-48.6,73.9-84
		c6.6-21.2,6.5-19.2,6.5-157.7c0-140.7,0.1-137-7.1-149.5c-8.1-13.9-23.4-24.6-39-27.5c-4-0.8-41.5-1.2-94.8-1.2h-88l0.8-6.6
		c0.4-3.5,0.9-13.9,1-23c0.2-14.9,0-16.7-2.4-19.9C2431.9,2582.8,2422.1,2580.1,2414.1,2584.4L2414.1,2584.4z"/>
	<path id="path12" class="st0" d="M557.9,2585.7c-9,4.5-9.4,6-10.1,36.9l-0.6,27.8l-26.2,0.6c-28.5,0.6-30.2,1.1-34.4,7.9
		c-2.4,3.9-2.5,7.5-2.5,137.4v133.5h31.9h31.9l-0.2,54l-0.4,54.1l-26.2,0.6c-22.4,0.5-26.9,1-29.7,2.9c-10.6,6.9-9.6,25,1.6,31
		c4.1,2.2,8.6,2.4,80.2,2.4h76v-33.9c0-37.4-0.4-39.9-7.9-45.1c-5.4-3.9-15.2-4.4-20.5-1.1c-7.5,4.8-8.4,7.4-8.4,26.2l-0.1,17
		l-13.4,0.4l-13.5,0.4v-54.5v-54.4h31.9h31.9v-123.5c0-136.7,0.4-130.8-8.1-141.9c-2.9-3.8-6.9-6.9-12-9.5
		c-7.6-3.8-8.1-3.9-25.6-3.9h-17.9l-0.4-27.9c-0.4-26.4-0.5-28-3.1-31.6c-3-4.2-10.7-8-16.4-8
		C563.7,2583.4,560.3,2584.4,557.9,2585.7L557.9,2585.7z M547.2,2789.7v101.9l-13.4,0.4l-13.5,0.4v-102.6v-102.6l13.5,0.4l13.4,0.4
		V2789.7z M609.3,2690.7l2.9,2.9v99v99l-13.4,0.4l-13.5,0.4v-102.7v-102.6l10.6,0.4C604.9,2687.7,606.9,2688.2,609.3,2690.7z"/>
	<path id="path14" class="st0" d="M1300.8,2584.7c-1.4,0.5-4.2,3-6.5,5.5c-4,4.5-4,4.8-4,17.6v13.1h-75.5c-44.5,0-78.1,0.5-81.9,1.2
		c-18.5,3.5-34.5,17.6-41.6,36.9c-2.9,7.5-2.9,7.5-3.6,115c-0.8,100.2-1,108.7-3.4,126.2c-8.1,57.2-23.9,104.5-46,137.5l-5.7,8.6
		l4.2,3.8c15.9,14.4,22.8,20.1,24.1,20.5c0.9,0.2,4.1-2.9,7.2-6.9c31.8-41.4,50.9-99.6,55.9-170.4c0.6-10,1.2-36.2,1.2-58.5v-40.2
		h167.9c111.1,0,169.4,0.5,172.4,1.2c2.5,0.8,5.9,2.9,7.3,4.8c3.8,4.8,2.7,9.8-5.2,24.4c-17.9,32.9-44.6,62.2-84.9,93.6
		c-12.5,9.8-40.4,29.2-45.6,32c-2.4,1.2-5.1-0.1-21.9-11.1c-55.5-36.6-93.1-73.2-117.7-115.1l-6.5-11h-19.1h-19.1l0.9,2.7
		c3.1,10.2,17.7,34.6,32,53.6c24.4,32.4,65.4,70.1,104.6,96.1l10.2,6.9l-18.5,9c-36.9,17.9-101.9,41.7-144.1,52.9
		c-8.6,2.4-15.9,4.4-16.1,4.6c-0.9,0.6,11.8,33.1,13.1,33.7c2,0.8,39.5-9.8,68.6-19.2c45.7-14.9,88.1-33.1,119.9-51.5l11.2-6.5
		l29.4,14.9c41.4,20.8,83,36.8,129.5,49.5c17.1,4.8,53.6,13.3,56.9,13.3c1.4,0,3.2-4.8,6.6-16.5c2.6-9.1,4.8-17,4.6-17.4
		c0-0.5-2.6-1.2-5.9-1.6c-9.9-1.4-50.9-11.8-70.2-17.8c-34.9-10.9-69-24.4-100.4-39.9l-14.6-7.2l15.2-10.4
		c71.7-48.7,119.1-107.2,128.4-158.2c3.2-17.8-3.5-33-18.8-42l-5.6-3.4l-81.2-0.6l-81.2-0.6l-0.4-49.8l-0.2-49.6h76.4
		c50.1,0,77.1,0.5,78.7,1.2c4.4,2.4,2.4,10.5-5.6,23c-2.2,3.5-4.4,7-4.9,7.9c-0.6,1,4.4,5.9,13.6,13.6l14.5,12.3l2.1-2.9
		c5.9-7.9,15.9-24.9,19.9-34.1c3.8-8.8,4.5-12,5-22.4c0.8-14.9-0.8-19.5-7.9-25.9c-11.2-9.9-7.9-9.6-105.2-10l-86.4-0.4l-0.5-13.6
		c-0.4-12.5-0.6-13.9-3.5-16.9C1316.9,2583.9,1308.1,2581.7,1300.8,2584.7L1300.8,2584.7z M1290.1,2708.1l-0.4,49.8l-82.2,0.4
		l-82.2,0.2l0.4-44c0.4-43.3,0.4-44.2,3.1-48c5.9-8.2,3.1-8,86.4-8h75.2L1290.1,2708.1L1290.1,2708.1z"/>
	<path id="path16" class="st0" d="M1869.3,2585.9c-7.3,4.5-9,9-9,23.4v12.9h-28.1c-30.2,0-32,0.2-38,6.7c-4,4.2-5,13.8-2,19.9
		c4,8.6,5.4,8.9,38.1,9.6l29.4,0.6v11.9v11.9l-21.9,0.6c-25,0.8-27.9,1.8-31.7,11.5c-3,7.4-1.6,13.9,4.2,20.2l4.9,5.1l22.5,0.4
		l22.6,0.4v12.5v12.4h-31.9c-29.8,0-32.4,0.1-37,2.6c-5.4,2.6-9.8,10-9.9,16c0,5,4.6,13.1,9,15.8c4,2.5,6.9,2.5,160,2.5h155.9
		l3.5-2.6c11.8-8.7,12-23.7,0.5-31.4c-4.1-2.8-5-2.9-37.1-2.9h-33v-12.5v-12.5h21c24,0,27.6-1,32.4-9.5c5.1-8.9,2.6-19.4-5.9-25.2
		c-3.9-2.6-5.4-2.8-25.7-2.8h-21.8v-12.5v-12.6l28,0.1c17.4,0.1,29-0.4,30.5-1.1c4.4-2.4,8.8-8.6,9.6-13.9c0.6-4,0.2-6.2-2.1-10.9
		c-4.9-9.8-7-10.4-38.7-10.4h-27.3v-11.9c0-13.6-1.5-18.5-7.4-23.5c-5.1-4.2-14.6-4.8-20.7-0.9c-6.4,3.9-8.1,9-8.1,23.6v12.6h-53.1
		h-53.1v-12.9c0-10.5-0.5-13.5-2.5-16.9c-3.5-5.6-9.5-9-16.2-9C1875.7,2583.4,1871.8,2584.4,1869.3,2585.9L1869.3,2585.9z
		 M2004.1,2670.9v12.5h-53.1h-53.1v-11.6c0-6.5,0.4-12.1,0.9-12.5c0.4-0.5,24.4-0.9,53.1-0.9h52.2V2670.9z M2004.1,2733.4v12.5
		h-53.1h-53.1v-12.5v-12.5h53.1h53.1V2733.4z"/>
	<path id="path18" class="st0" d="M1618.1,2613.6c-2.3,1.5-5.2,4.9-6.5,7.5c-2.5,4.6-2.5,8.6-2.5,182.4v177.5h76.2h76.2l-0.2-171.6
		l-0.4-171.5l-3-6.1c-3.8-7.6-9.5-13.4-17.1-17.1l-6.1-3l-56.2-0.2C1622.9,2610.9,1622.2,2610.9,1618.1,2613.6L1618.1,2613.6z
		 M1716.1,2651.7c1.9,1.4,4.6,4.1,6,6c2.5,3.3,2.6,5.1,2.6,33.6v30.2l-39,0.4l-39.1,0.2v-36.9v-37l33,0.4
		C1710.7,2649.1,1712.8,2649.2,1716.1,2651.7L1716.1,2651.7z M1724.7,2796.6v36.2l-39,0.4l-39.1,0.2v-36.9v-36.9l39.1,0.2l39,0.4
		V2796.6z M1725.1,2907.4l0.2,37.2h-39.4h-39.4v-37.5v-37.5l39.1,0.2l39,0.4L1725.1,2907.4z"/>
	<path id="path20" class="st0" d="M675.3,2848.4v226.2h18.1h18.1l0.2-59.8l0.4-59.6l61.9-0.4l62-0.2l-6.6-13.1
		c-3.5-7.2-7.2-15.4-8-18.1l-1.5-5h-54.2h-54.1v-26.9v-26.9h51.2h51.2v-18.1v-18.1l-50.9-0.2l-51-0.4v-26.2v-26.2l51-0.4l50.9-0.2
		v-61c0-69,0.1-68.2-9.5-78.9c-3-3.4-8.1-7.4-11.4-9l-6-3l-55.9-0.4l-56-0.4V2848.4z M767.8,2663.7c8.2,5.8,8.8,7.9,8.8,43.1v31.6
		h-32.5h-32.5v-38.8v-38.7h26.1C762.6,2660.9,763.8,2661.1,767.8,2663.7z"/>
	<path id="path22" class="st0" d="M841.6,2642.2v18.8h43.9c48.5,0,49.6,0.1,55.2,8c2.6,3.8,2.8,5,3.1,37.2l0.4,33.5h-51.4h-51.2
		v18.8v18.8h70h70.1l-0.4-62.9l-0.4-62.7l-3.1-6.2c-4-8-11.2-15.1-18.6-18.6c-5.6-2.5-7.5-2.6-61.6-3l-56-0.4V2642.2L841.6,2642.2z"
		/>
	<path id="path24" class="st0" d="M1813.1,2813.4c-2.2,1.4-5.1,4.2-6.5,6.5c-2.5,4-2.5,6.6-2.5,128.8v124.7h18.1h18.1v-38.8v-38.7
		h110.1h110.2l-0.9,6.5c-2.4,17.2-15.1,30.9-31,33l-6,0.9v17.9v18h7c28.4,0,56.1-21.9,64.7-51.1c1.6-5.8,2-18.4,2-93.8
		c0.1-65.1-0.2-88.1-1.4-91.4c-3.5-10.1-10.2-17-21.8-22.1c-4.8-2.1-12.9-2.2-130.6-2.6C1819.1,2810.9,1817.2,2810.9,1813.1,2813.4
		L1813.1,2813.4z M1932.8,2865.9v18.8h-46.2h-46.2v-18.8v-18.7h46.2h46.2V2865.9z M2049.7,2850.4c7.8,3.9,10.8,11,10.4,23.6l-0.4,10
		l-44.6,0.4l-44.8,0.2v-18.9v-18.8l37.2,0.4C2042.2,2847.8,2045.1,2847.9,2049.7,2850.4L2049.7,2850.4z M1932.8,2940.3v18.1h-46.2
		h-46.2v-18.1v-18.1h46.2h46.2V2940.3z M2060.3,2940.3v18.1h-45h-45v-18.1v-18.1h45h45V2940.3z"/>
	<path id="path26" class="st0" d="M841.8,2841.8l0.4,18.5l49.4,0.6c56.1,0.8,54.4,0.4,59,11c2.5,5.5,2.5,6.1,0.6,14.9
		c-2.4,11.1-9.4,28.8-15.6,39.8c-5.8,10-20.2,30.6-21.5,30.6c-1.6,0-12.2-17.2-18.1-29.4c-8-16.5-12.4-29.2-16.1-46l-0.7-3.4h-18.1
		h-18.1v3.6c0,6.5,7.2,32.2,13.2,46.6c6.8,16.7,11.9,26.1,23.2,43.2l8.5,12.9l-7.1,6.6c-26.2,23.9-42.1,35.6-63.2,46.5
		c-8.1,4.1-9.5,5.2-8.9,7.4c1.2,3.8,14.1,29.4,14.9,29.4c1.4,0,16.8-8.1,26.8-14c14.2-8.6,31.9-22,48-36.4
		c7.5-6.6,13.9-12.1,14.1-12.1c0.4,0,7,6,14.6,13.4c22.2,21.4,39.4,33.4,63.4,44.2c7.1,3.4,13.1,5.9,13.2,5.8
		c0.1-0.1,3.6-7.5,7.9-16.2l7.5-16l-4-1.4c-8.9-3.1-33.2-16.4-41.5-22.5c-4.8-3.6-14.9-12.5-22.4-19.8l-13.6-13.2l8.1-10.5
		c28.4-36.9,43.7-75.5,44-110.6c0.1-12.6-0.1-14.4-3.4-20.9c-4-8-10-13.9-18.2-17.8c-5.5-2.5-7.8-2.6-66.1-3l-60.4-0.4
		C841.4,2823.3,841.8,2841.8,841.8,2841.8z"/>
	<path id="path28" class="st0" d="M1626.7,3011.2c-3.8,5.6-13.4,16.9-21.4,25.1l-14.5,14.9l12.4,11.4l12.4,11.4l10.6-11.2
		c20.2-21.2,33.6-38.1,42.9-54.6l4-7.1h-19.9h-19.8L1626.7,3011.2L1626.7,3011.2z"/>
	<path id="path30" class="st0" d="M1702.8,3008.1c9.2,16.2,22.1,32.9,42.7,54.8l10.6,11.2l12.6-11.6l12.6-11.6l-10.1-9.6
		c-10.8-10.2-22.9-24.6-28.9-34.4l-3.8-5.9h-19.9h-20L1702.8,3008.1L1702.8,3008.1z"/>
</g>
</svg>
