<?xml version="1.0" encoding="UTF-8" standalone="no"?>
<!-- Created with Inkscape (http://www.inkscape.org/) -->

<svg
   xmlns:dc="http://purl.org/dc/elements/1.1/"
   xmlns:cc="http://creativecommons.org/ns#"
   xmlns:rdf="http://www.w3.org/1999/02/22-rdf-syntax-ns#"
   xmlns:svg="http://www.w3.org/2000/svg"
   xmlns="http://www.w3.org/2000/svg"
   version="1.0"
   width="270"
   height="365.23364"
   viewBox="0 0 216 292.18691"
   id="svg2">
  <metadata
     id="metadata36">
    <rdf:RDF>
      <cc:Work
         rdf:about="">
        <dc:format>image/svg+xml</dc:format>
        <dc:type
           rdf:resource="http://purl.org/dc/dcmitype/StillImage" />
        <dc:title></dc:title>
      </cc:Work>
    </rdf:RDF>
  </metadata>
  <defs
     id="defs34" />
  <g
     transform="matrix(0.12362381,0,0,0.12362381,-59.804737,-14.98161)"
     id="g3794">
    <path
       d="m 1323,122.1 c -110.5,9.7 -195.4,73.7 -254.8,192.4 -39.8,79.6 -67.7,193.8 -70.9,290.7 l -0.6,18.8 -195.6,0.3 c -213.7,0.3 -199.8,0 -216.3,6 -18.6,6.8 -32.8,20.7 -40,39.4 -4.6,11.9 -6.2,21.2 -6.2,37.3 -0.1,9.8 11.9,178.7 36.7,519.5 20.2,277.7 37.4,512 38.3,520.6 1.8,18.5 5.9,39.9 10.9,56.5 22.5,74.3 67,120.1 132,136 23.7,5.8 -17.1,5.4 593.3,5.4 607,0 566.1,0.3 589.5,-5.1 36.7,-8.6 69.8,-28.9 93.6,-57.4 31.8,-38.2 52.7,-94.5 57,-153.5 0.6,-8 4,-54.8 7.6,-104 3.6,-49.2 19.9,-271.1 36.1,-493 16.3,-221.9 29.8,-409.9 30.1,-417.7 1.8,-48.4 -17.8,-77.9 -58.6,-88 -6,-1.5 -24.5,-1.7 -203.7,-2 l -197.1,-0.3 -1.2,-22.1 c -6.3,-115.6 -42,-236.3 -95.2,-321.9 -18.3,-29.6 -35.4,-51.5 -57.4,-73.6 -50.8,-50.9 -108.8,-78.6 -177,-84.4 -13.8,-1.1 -36.7,-1.1 -50.5,0.1 z m 43.1,91 c 62.7,6.4 113.1,38.7 154.2,98.9 38.7,56.8 67.2,138.6 82.6,237 3.2,20.7 6.6,49.1 7.7,65.2 l 0.7,9.8 -261.2,0 c -143.6,0 -261.1,-0.3 -261.1,-0.8 0.3,-15.5 4.4,-56.7 8.1,-82.2 19.3,-132.4 64.6,-231.2 129.9,-283.7 29.3,-23.6 65,-38.8 101.5,-43.2 18.5,-2.3 24,-2.4 37.6,-1 z m 37.4,641.4 c 55.4,7.6 107,26.2 152.1,54.8 19,12 24.5,19 25.2,31.9 1.1,18.2 -12.7,34.8 -28.9,34.8 -6.6,0 -10.6,-1.9 -28.3,-13.3 -12.8,-8.3 -35.5,-20.2 -50.1,-26.2 -47.8,-19.9 -99.7,-27.5 -142.9,-21 -68.1,10.3 -128,54 -145.9,106.5 -7.5,22.1 -8.5,47.8 -2.6,69 10,36.4 43,67.3 104.9,98.4 25,12.6 40.4,19.1 83.7,35.2 69.4,25.7 114.8,47.3 153.3,72.9 35.6,23.7 66.1,54.2 84.6,84.6 33.8,55.5 36.2,127.2 6.2,187.4 -24.2,48.4 -70.6,85.4 -133.3,106.3 -64.2,21.5 -135.5,23.6 -207.5,6.1 -57.9,-14.1 -119,-43 -167.9,-79.3 -16.5,-12.3 -21.8,-21.2 -20.9,-34.7 1.1,-14.7 13.7,-26.5 29.7,-27.7 8.5,-0.6 11.1,0.6 25.9,11.1 63.2,45.4 136,73.7 205.2,79.8 17.1,1.5 54.7,0.6 69,-1.6 36.1,-5.6 69.7,-18.1 97.4,-36.5 21.6,-14.4 37.1,-31.6 48,-53.7 10.1,-20.2 13.9,-36.6 13.9,-58.8 -0.1,-37.4 -14.4,-68.5 -46.3,-100.6 -21.8,-21.8 -46.4,-38.9 -82,-56.9 -28.8,-14.4 -50.5,-23.6 -118.1,-49.9 -36.6,-14.2 -53.7,-21.7 -74.1,-32.6 -71.9,-38.6 -111.5,-77.3 -128.2,-125.4 -6.8,-19.5 -8,-27.8 -8,-53.1 0,-20.8 0.2,-23.5 2.8,-35.3 13,-60.4 50.3,-109.9 107.1,-142 29.3,-16.5 66.6,-27.8 105,-31.7 13.6,-1.3 56.9,-0.5 71,1.5 z"
       id="path6"
       style="fill:#ff5722;fill-opacity:1;stroke:none" />
    <path
       d="m 1917.3,2091.9 c -2.4,1.1 -5.1,3.4 -6.3,5.3 -1.9,3.2 -2,4.9 -2,44.5 l 0,41.3 -13.1,0 -13,0 0.6,-5.3 c 0.3,-2.8 0.7,-12.6 0.8,-21.7 0.2,-15.9 0.1,-16.6 -2.1,-19.8 -6.4,-8.9 -21.1,-8.4 -25.5,1.1 -1,2.3 -1.6,8.5 -2.1,21.2 -0.6,19.7 -1.6,29.5 -4.7,48.5 -4.2,25.6 -13.2,57.3 -22.3,78.9 -2,4.7 -3.5,8.6 -3.3,8.7 2.1,1.9 24.1,14.3 24.7,13.9 1.4,-0.9 10.6,-20.6 14.4,-30.8 5.5,-14.8 10.3,-32.1 13.2,-48 1.4,-7.8 2.8,-14.8 3,-15.5 0.2,-0.9 4.1,-1.2 14.9,-1.2 l 14.5,0 0,63.4 0,63.5 -3.2,2.5 c -12.6,9.5 -49.8,29.3 -69.1,36.7 -6.9,2.7 -8.7,3.8 -8.3,5.1 0.8,3.3 11.7,22.8 12.8,22.8 4.7,0 49,-20.5 62.3,-28.8 l 5,-3.1 0.3,54.4 0.2,54.5 14.5,0 14.5,0 0,-63.9 0,-64 12.1,-9.7 c 13.2,-10.6 33.4,-28.7 36.7,-32.9 l 2.1,-2.7 -10.9,-9.4 c -6,-5.2 -11.2,-9.4 -11.5,-9.4 -0.4,0 -6.5,5.5 -13.6,12.2 -7.1,6.8 -13.4,12.4 -13.9,12.6 -0.7,0.2 -1,-18.2 -1,-51.7 l 0,-52.1 23,0 23,0 0,-15 0,-15 -23,0 -23,0 0,-41 c 0,-44.9 0,-44.7 -5.8,-48.9 -4.4,-3.1 -9.9,-3.5 -14.9,-1.2 z"
       id="path8"
       style="fill:#ff5722;fill-opacity:1;stroke:none" />
    <path
       d="m 2028,2091.8 c -6.2,3.4 -8,7.2 -8,17.1 0,51.8 -18.3,109.8 -47.3,150.3 l -5.6,7.7 10.9,8 10.9,8 3.4,-4.2 c 20.8,-26.2 39.7,-65.9 48.8,-103 l 2.1,-8.7 15.5,0 15.4,0 -0.6,3.7 c -0.4,2.1 -2,10.5 -3.6,18.8 -13.7,70 -47.4,132.1 -94,173.3 -6,5.3 -10.9,9.8 -10.9,10.2 0,1 17,22 17.8,22 0.5,0 3.5,-1.9 6.8,-4.1 34.2,-23.9 66.5,-66.3 86.8,-114 6.5,-15.3 14,-37.8 18.5,-55.7 3.3,-13.3 5,-22.1 9.7,-51 l 0.5,-3.2 17.9,0 18,0 0,2.4 c 0,6.4 -2.2,29.7 -4.1,42.1 -8.8,60.4 -32.2,119.3 -65.7,165.4 -19.9,27.4 -43.6,51.6 -70.4,71.8 -6.2,4.8 -11.3,8.9 -11.3,9.2 0,0.9 14.5,21 15.7,21.7 1,0.6 14,-7.6 24.3,-15.5 11.4,-8.6 25.1,-20.9 36.1,-32.3 52.8,-55 87.1,-126.4 100.4,-209.3 2.3,-14.7 5,-39.5 5,-46.9 0,-8.7 -0.1,-8.6 10.5,-8.6 10.5,0 14.2,1.7 17.9,8 2.1,3.5 2.1,4.4 2.1,105 0,110.1 0.2,105.9 -5.6,121.1 -11,28.7 -39.4,50 -70.1,52.5 l -7.8,0.7 0,14.8 0,14.9 3.9,0 c 12.3,0 31.3,-4.7 44.8,-11 27.6,-12.9 50.4,-38.9 59.1,-67.2 5.3,-17 5.2,-15.4 5.2,-126.2 0,-112.6 0.1,-109.6 -5.7,-119.6 -6.5,-11.1 -18.7,-19.7 -31.2,-22 -3.2,-0.6 -33.2,-1 -75.8,-1 l -70.4,0 0.6,-5.3 c 0.3,-2.8 0.7,-11.1 0.8,-18.4 0.2,-11.9 0,-13.4 -1.9,-15.9 -5.1,-6.9 -13,-9.1 -19.4,-5.6 z"
       id="path10"
       style="fill:#ff5722;fill-opacity:1;stroke:none" />
    <path
       d="m 543.1,2092.8 c -7.2,3.6 -7.5,4.8 -8.1,29.5 l -0.5,22.2 -21,0.5 c -22.8,0.5 -24.2,0.9 -27.5,6.3 -1.9,3.1 -2,6 -2,109.9 l 0,106.8 25.5,0 25.5,0 -0.2,43.2 -0.3,43.3 -21,0.5 c -17.9,0.4 -21.5,0.8 -23.8,2.3 -8.5,5.5 -7.7,20 1.3,24.8 3.3,1.8 6.9,1.9 64.2,1.9 l 60.8,0 0,-27.1 c 0,-29.9 -0.3,-31.9 -6.3,-36.1 -4.3,-3.1 -12.2,-3.5 -16.4,-0.9 -6,3.8 -6.7,5.9 -6.7,21 l -0.1,13.6 -10.7,0.3 -10.8,0.3 0,-43.6 0,-43.5 25.5,0 25.5,0 0,-98.8 c 0,-109.4 0.3,-104.6 -6.5,-113.5 -2.3,-3 -5.5,-5.5 -9.6,-7.6 -6.1,-3 -6.5,-3.1 -20.5,-3.1 l -14.3,0 -0.3,-22.3 c -0.3,-21.1 -0.4,-22.4 -2.5,-25.3 -2.4,-3.4 -8.6,-6.4 -13.1,-6.4 -1.5,0 -4.2,0.8 -6.1,1.8 z m -8.6,163.2 0,81.5 -10.7,0.3 -10.8,0.3 0,-82.1 0,-82.1 10.8,0.3 10.7,0.3 0,81.5 z m 49.7,-79.2 2.3,2.3 0,79.2 0,79.2 -10.7,0.3 -10.8,0.3 0,-82.2 0,-82.1 8.5,0.3 c 7.2,0.3 8.8,0.7 10.7,2.7 z"
       id="path12"
       style="fill:#ff5722;fill-opacity:1;stroke:none" />
    <path
       d="m 1137.4,2092 c -1.1,0.4 -3.4,2.4 -5.2,4.4 -3.2,3.6 -3.2,3.8 -3.2,14.1 l 0,10.5 -60.4,0 c -35.6,0 -62.5,0.4 -65.5,1 -14.8,2.8 -27.6,14.1 -33.3,29.5 -2.3,6 -2.3,6 -2.9,92 -0.6,80.2 -0.8,87 -2.7,101 -6.5,45.8 -19.1,83.6 -36.8,110 l -4.6,6.9 3.4,3 c 12.7,11.5 18.2,16.1 19.3,16.4 0.7,0.2 3.3,-2.3 5.8,-5.5 25.4,-33.1 40.7,-79.7 44.7,-136.3 0.5,-8 1,-29 1,-46.8 l 0,-32.2 134.3,0 c 88.9,0 135.5,0.4 137.9,1 2,0.6 4.7,2.3 5.8,3.8 3,3.8 2.2,7.8 -4.2,19.5 -14.3,26.3 -35.7,49.8 -67.9,74.9 -10,7.8 -32.3,23.4 -36.5,25.6 -1.9,1 -4.1,-0.1 -17.5,-8.9 -44.4,-29.3 -74.5,-58.6 -94.2,-92.1 l -5.2,-8.8 -15.3,0 -15.3,0 0.7,2.2 c 2.5,8.2 14.2,27.7 25.6,42.9 19.5,25.9 52.3,56.1 83.7,76.9 l 8.2,5.5 -14.8,7.2 c -29.5,14.3 -81.5,33.4 -115.3,42.3 -6.9,1.9 -12.7,3.5 -12.9,3.7 -0.7,0.5 9.4,26.5 10.5,27 1.6,0.6 31.6,-7.8 54.9,-15.4 36.6,-11.9 70.5,-26.5 95.9,-41.2 l 9,-5.2 23.5,11.9 c 33.1,16.6 66.4,29.4 103.6,39.6 13.7,3.8 42.9,10.6 45.5,10.6 1.1,0 2.6,-3.8 5.3,-13.2 2.1,-7.3 3.8,-13.6 3.7,-13.9 0,-0.4 -2.1,-1 -4.7,-1.3 -7.9,-1.1 -40.7,-9.4 -56.2,-14.2 -27.9,-8.7 -55.2,-19.5 -80.3,-31.9 l -11.7,-5.8 12.2,-8.3 c 57.4,-39 95.3,-85.8 102.7,-126.6 2.6,-14.2 -2.8,-26.4 -15,-33.6 l -4.5,-2.7 -65,-0.5 -65,-0.5 -0.3,-39.8 -0.2,-39.7 61.1,0 c 40.1,0 61.7,0.4 63,1 3.5,1.9 1.9,8.4 -4.5,18.4 -1.8,2.8 -3.5,5.6 -3.9,6.3 -0.5,0.8 3.5,4.7 10.9,10.9 l 11.6,9.8 1.7,-2.3 c 4.7,-6.3 12.7,-19.9 15.9,-27.3 3,-7 3.6,-9.6 4,-17.9 0.6,-11.9 -0.6,-15.6 -6.3,-20.7 -9,-7.9 -6.3,-7.7 -84.2,-8 l -69.1,-0.3 -0.4,-10.9 c -0.3,-10 -0.5,-11.1 -2.8,-13.5 -4.7,-5.1 -11.8,-6.9 -17.6,-4.5 z m -8.6,98.7 -0.3,39.8 -65.8,0.3 -65.8,0.2 0.3,-35.2 c 0.3,-34.6 0.3,-35.4 2.5,-38.4 4.7,-6.6 2.5,-6.4 69.1,-6.4 l 60.2,0 -0.2,39.7 z"
       id="path14"
       style="fill:#ff5722;fill-opacity:1;stroke:none" />
    <path
       d="m 1592.2,2093 c -5.8,3.6 -7.2,7.2 -7.2,18.7 l 0,10.3 -22.5,0 c -24.2,0 -25.6,0.2 -30.4,5.4 -3.2,3.4 -4,11 -1.6,15.9 3.2,6.9 4.3,7.1 30.5,7.7 l 23.5,0.5 0,9.5 0,9.5 -17.5,0.5 c -20,0.6 -22.3,1.4 -25.4,9.2 -2.4,5.9 -1.3,11.1 3.4,16.2 l 3.9,4.1 18,0.3 18.1,0.3 0,10 0,9.9 -25.5,0 c -23.8,0 -25.9,0.1 -29.6,2.1 -4.3,2.1 -7.8,8 -7.9,12.8 0,4 3.7,10.5 7.2,12.6 3.2,2 5.5,2 128,2 l 124.7,0 2.8,-2.1 c 9.4,-7 9.6,-19 0.4,-25.1 -3.3,-2.2 -4,-2.3 -29.7,-2.3 l -26.4,0 0,-10 0,-10 16.8,0 c 19.2,0 22.1,-0.8 25.9,-7.6 4.1,-7.1 2.1,-15.5 -4.7,-20.2 -3.1,-2.1 -4.3,-2.2 -20.6,-2.2 l -17.4,0 0,-10 0,-10.1 22.4,0.1 c 13.9,0.1 23.2,-0.3 24.4,-0.9 3.5,-1.9 7,-6.9 7.7,-11.1 0.5,-3.2 0.2,-5 -1.7,-8.7 -3.9,-7.8 -5.6,-8.3 -31,-8.3 l -21.8,0 0,-9.5 c 0,-10.9 -1.2,-14.8 -5.9,-18.8 -4.1,-3.4 -11.7,-3.8 -16.6,-0.7 -5.1,3.1 -6.5,7.2 -6.5,18.9 l 0,10.1 -42.5,0 -42.5,0 0,-10.3 c 0,-8.4 -0.4,-10.8 -2,-13.5 -2.8,-4.5 -7.6,-7.2 -13,-7.2 -2.7,0 -5.8,0.8 -7.8,2 z m 107.8,68 0,10 -42.5,0 -42.5,0 0,-9.3 c 0,-5.2 0.3,-9.7 0.7,-10 0.3,-0.4 19.5,-0.7 42.5,-0.7 l 41.8,0 0,10 z m 0,50 0,10 -42.5,0 -42.5,0 0,-10 0,-10 42.5,0 42.5,0 0,10 z"
       id="path16"
       style="fill:#ff5722;fill-opacity:1;stroke:none" />
    <path
       d="m 1391.2,2115.1 c -1.8,1.2 -4.2,3.9 -5.2,6 -2,3.7 -2,6.9 -2,145.9 l 0,142 61,0 61,0 -0.2,-137.3 -0.3,-137.2 -2.4,-4.9 c -3,-6.1 -7.6,-10.7 -13.7,-13.7 l -4.9,-2.4 -45,-0.2 c -44.4,-0.3 -45,-0.3 -48.3,1.8 z m 78.4,30.5 c 1.5,1.1 3.7,3.3 4.8,4.8 2,2.6 2.1,4.1 2.1,26.9 l 0,24.2 -31.2,0.3 -31.3,0.2 0,-29.5 0,-29.6 26.4,0.3 c 24.9,0.3 26.6,0.4 29.2,2.4 z m 6.9,115.9 0,29 -31.2,0.3 -31.3,0.2 0,-29.5 0,-29.5 31.3,0.2 31.2,0.3 0,29 z m 0.3,88.7 0.2,29.8 -31.5,0 -31.5,0 0,-30 0,-30 31.3,0.2 31.2,0.3 0.3,29.7 z"
       id="path18"
       style="fill:#ff5722;fill-opacity:1;stroke:none" />
    <path
       d="m 637,2303 0,181 14.5,0 14.5,0 0.2,-47.8 0.3,-47.7 49.5,-0.3 49.6,-0.2 -5.3,-10.5 c -2.8,-5.8 -5.8,-12.3 -6.4,-14.5 l -1.2,-4 -43.4,0 -43.3,0 0,-21.5 0,-21.5 41,0 41,0 0,-14.5 0,-14.5 -40.7,-0.2 -40.8,-0.3 0,-21 0,-21 40.8,-0.3 40.7,-0.2 0,-48.8 c 0,-55.2 0.1,-54.6 -7.6,-63.1 -2.4,-2.7 -6.5,-5.9 -9.1,-7.2 l -4.8,-2.4 -44.7,-0.3 -44.8,-0.3 0,181.1 z m 74,-147.8 c 6.6,4.6 7,6.3 7,34.5 l 0,25.3 -26,0 -26,0 0,-31 0,-31 20.9,0 c 19.9,0 20.9,0.1 24.1,2.2 z"
       id="path20"
       style="fill:#ff5722;fill-opacity:1;stroke:none" />
    <path
       d="m 770,2138 0,15 35.1,0 c 38.8,0 39.7,0.1 44.2,6.4 2.1,3 2.2,4 2.5,29.8 l 0.3,26.8 -41.1,0 -41,0 0,15 0,15 56,0 56.1,0 -0.3,-50.3 -0.3,-50.2 -2.5,-5 c -3.2,-6.4 -9,-12.1 -14.9,-14.9 -4.5,-2 -6,-2.1 -49.3,-2.4 l -44.8,-0.3 0,15.1 z"
       id="path22"
       style="fill:#ff5722;fill-opacity:1;stroke:none" />
    <path
       d="m 1547.2,2275 c -1.8,1.1 -4.1,3.4 -5.2,5.2 -2,3.2 -2,5.3 -2,103 l 0,99.8 14.5,0 14.5,0 0,-31 0,-31 88.1,0 88.2,0 -0.7,5.2 c -1.9,13.8 -12.1,24.7 -24.8,26.4 l -4.8,0.7 0,14.3 0,14.4 5.6,0 c 22.7,0 44.9,-17.5 51.8,-40.9 1.3,-4.6 1.6,-14.7 1.6,-75 0.1,-52.1 -0.2,-70.5 -1.1,-73.1 -2.8,-8.1 -8.2,-13.6 -17.4,-17.7 -3.8,-1.7 -10.3,-1.8 -104.5,-2.1 -99,-0.2 -100.5,-0.2 -103.8,1.8 z m 95.8,42 0,15 -37,0 -37,0 0,-15 0,-15 37,0 37,0 0,15 z m 93.5,-12.4 c 6.2,3.1 8.6,8.8 8.3,18.9 l -0.3,8 -35.7,0.3 -35.8,0.2 0,-15.1 0,-15 29.8,0.3 c 27.7,0.3 30,0.4 33.7,2.4 z m -93.5,71.9 0,14.5 -37,0 -37,0 0,-14.5 0,-14.5 37,0 37,0 0,14.5 z m 102,0 0,14.5 -36,0 -36,0 0,-14.5 0,-14.5 36,0 36,0 0,14.5 z"
       id="path24"
       style="fill:#ff5722;fill-opacity:1;stroke:none" />
    <path
       d="m 770.2,2297.7 0.3,14.8 39.5,0.5 c 44.9,0.6 43.5,0.3 47.2,8.8 2,4.4 2,4.9 0.5,11.9 -1.9,8.9 -7.5,23 -12.5,31.8 -4.6,8 -16.2,24.5 -17.2,24.5 -1.3,0 -9.8,-13.8 -14.5,-23.5 -6.4,-13.2 -9.9,-23.4 -12.9,-36.8 l -0.6,-2.7 -14.5,0 -14.5,0 0,2.9 c 0,5.2 5.8,25.8 10.6,37.3 5.4,13.4 9.5,20.9 18.6,34.6 l 6.8,10.3 -5.7,5.3 c -21,19.1 -33.7,28.5 -50.6,37.2 -6.5,3.3 -7.6,4.2 -7.1,5.9 1,3 11.3,23.5 11.9,23.5 1.1,0 13.4,-6.5 21.4,-11.2 11.4,-6.9 25.5,-17.6 38.4,-29.1 6,-5.3 11.1,-9.7 11.3,-9.7 0.3,0 5.6,4.8 11.7,10.7 17.8,17.1 31.5,26.7 50.7,35.4 5.7,2.7 10.5,4.7 10.6,4.6 0.1,-0.1 2.9,-6 6.3,-13 l 6,-12.8 -3.2,-1.1 c -7.1,-2.5 -26.6,-13.1 -33.2,-18 -3.8,-2.9 -11.9,-10 -17.9,-15.8 l -10.9,-10.6 6.5,-8.4 c 22.7,-29.5 35,-60.4 35.2,-88.5 0.1,-10.1 -0.1,-11.5 -2.7,-16.7 -3.2,-6.4 -8,-11.1 -14.6,-14.2 -4.4,-2 -6.2,-2.1 -52.9,-2.4 l -48.3,-0.3 0.3,14.8 z"
       id="path26"
       style="fill:#ff5722;fill-opacity:1;stroke:none" />
    <path
       d="m 1398.1,2433.2 c -3,4.5 -10.7,13.5 -17.1,20.1 l -11.6,11.9 9.9,9.1 9.9,9.1 8.5,-9 c 16.2,-17 26.9,-30.5 34.3,-43.7 l 3.2,-5.7 -15.9,0 -15.8,0 -5.4,8.2 z"
       id="path28"
       style="fill:#ff5722;fill-opacity:1;stroke:none" />
    <path
       d="m 1459,2430.7 c 7.4,13 17.7,26.3 34.2,43.8 l 8.5,9 10.1,-9.3 10.1,-9.3 -8.1,-7.7 c -8.6,-8.2 -18.3,-19.7 -23.1,-27.5 l -3,-4.7 -15.9,0 -16,0 3.2,5.7 z"
       id="path30"
       style="fill:#ff5722;fill-opacity:1;stroke:none" />
  </g>
</svg>
