<svg id="圖層_1" data-name="圖層 1" xmlns="http://www.w3.org/2000/svg" viewBox="0 0 73.35 76.74"><defs><style>.cls-1{fill:#edae48;}.cls-2{fill:#1f77b1;}.cls-3{fill:#fff;}.cls-4{fill:#cadbed;}</style></defs><g id="组_89" data-name="组 89"><path id="路径_104" data-name="路径 104" class="cls-1" d="M43.5,70v-8.2H41.4V73h0a2.11,2.11,0,0,0,2.1,2.1h3.2A1.11,1.11,0,0,0,47.8,74h0v-.3a.79.79,0,0,0-.8-.8h-.5a2.87,2.87,0,0,1-3-2.9Z" transform="translate(0.04)"/><path id="路径_105" data-name="路径 105" class="cls-2" d="M1.6,76.74H17c2.2-.2,43.9-5.6,48-60.9A1.67,1.67,0,0,0,63.5,14a1.5,1.5,0,0,0-1.1.4l-20,15.5a1.61,1.61,0,0,1-.9.3l-24,1.2a1.67,1.67,0,0,0-1.6,1.7v23.3a2.1,2.1,0,0,1-.4,1.1L.4,73.94a1.72,1.72,0,0,0,.1,2.4h0A2.1,2.1,0,0,0,1.6,76.74Z" transform="translate(0.04)"/><path id="矩形_36" data-name="矩形 36" class="cls-3" d="M11.5,41.44h24a6.06,6.06,0,0,1,6.1,6.1v10.7a6.06,6.06,0,0,1-6.1,6.1h-24a6.06,6.06,0,0,1-6.1-6.1V47.54A6,6,0,0,1,11.5,41.44Z" transform="translate(0.04)"/><path class="cls-2" d="M35.5,65.44H11.4a7.13,7.13,0,0,1-7.1-7.1V47.54a7.13,7.13,0,0,1,7.1-7.1h24a7.13,7.13,0,0,1,7.1,7.1v10.7A7.13,7.13,0,0,1,35.5,65.44Zm-24-23a5.12,5.12,0,0,0-5.1,5.1h0v10.7a5.12,5.12,0,0,0,5.1,5.1h24a5.12,5.12,0,0,0,5.1-5.1V47.54a5.12,5.12,0,0,0-5.1-5.1Z" transform="translate(0.04)"/><path id="路径_106" data-name="路径 106" class="cls-4" d="M53,.14l-5.9,2.2a4.16,4.16,0,0,1-3.1-.1,20.27,20.27,0,0,0-16.7,0,3.89,3.89,0,0,1-3,.1l-5.4-2a2,2,0,0,0-2.5,1.3,2.77,2.77,0,0,0-.1.9l1.2,7.8a3.73,3.73,0,0,1-.3,2.1,19.22,19.22,0,0,0-1.7,7.8h0v53.7a1.58,1.58,0,0,0,1.6,1.6,1.43,1.43,0,0,0,1.2-.6c3.5-4.3,9.4-13.8,12.6-31.8a3.37,3.37,0,0,1,3.5-2.7,16.33,16.33,0,0,0,3.1-.1,19.92,19.92,0,0,0,18-21.8,18.43,18.43,0,0,0-1.4-5.6,5.39,5.39,0,0,1-.3-2.5l1.3-8.5A1.55,1.55,0,0,0,53.8,0C53.7-.06,53.3,0,53,.14Z" transform="translate(0.04)"/><circle id="椭圆_15" data-name="椭圆 15" class="cls-3" cx="30.54" cy="16.04" r="6.9"/><circle id="椭圆_16" data-name="椭圆 16" class="cls-3" cx="43.04" cy="16.04" r="6.9"/><path id="路径_107" data-name="路径 107" class="cls-1" d="M36,19.14l-2.2,2.3a1.06,1.06,0,0,0-.2,1.2L35.8,28a1,1,0,0,0,1.4.6h0a.9.9,0,0,0,.6-.6l2.2-5.4a1.06,1.06,0,0,0-.2-1.2l-2.2-2.3a1.21,1.21,0,0,0-1.6,0Z" transform="translate(0.04)"/><path id="路径_108" data-name="路径 108" class="cls-2" d="M34.3,16.74a.78.78,0,0,1-1.1,0,3.58,3.58,0,0,0-2.5-1.1,3.86,3.86,0,0,0-2.2,1.1.77.77,0,0,1-1,.1h0a.81.81,0,0,1-.2-1.1h0l.1-.1a5,5,0,0,1,3.2-1.5,5.14,5.14,0,0,1,3.7,1.5c.4.2.4.7,0,1.1Z" transform="translate(0.04)"/><path id="路径_109" data-name="路径 109" class="cls-2" d="M46.6,16.74a.78.78,0,0,1-1.1,0,3.58,3.58,0,0,0-2.5-1.1,3.86,3.86,0,0,0-2.2,1.1.77.77,0,0,1-1,.1h0a.81.81,0,0,1-.2-1.1h0l.1-.1a5,5,0,0,1,3.2-1.5,5.14,5.14,0,0,1,3.7,1.5.78.78,0,0,1,0,1.1Z" transform="translate(0.04)"/><path id="路径_110" data-name="路径 110" class="cls-3" d="M72.8,22.84l-1.5-2.5h-.1l-1.7,2.9c0,.1,0,.2.1.2h2.8a.43.43,0,0,0,.4-.4h0C72.9,22.94,72.9,22.94,72.8,22.84Z" transform="translate(0.04)"/><path class="cls-1" d="M72.5,23.94h-3l-.2-.1c-.2-.1-.3-.2-.3-.4a.9.9,0,0,1,.1-.5l1.7-3,.1-.1a.6.6,0,0,1,.4-.1h.2l.2.2,1.5,2.5a.75.75,0,0,1,.1.5.81.81,0,0,1-.8,1Zm-2.3-1h2.1l-1-1.8Z" transform="translate(0.04)"/><path id="矩形_37" data-name="矩形 37" class="cls-1" d="M55.9,14.54l1-1.7a1.13,1.13,0,0,1,1.5-.4L71,19.74a1.13,1.13,0,0,1,.4,1.5l-1,1.7a1.13,1.13,0,0,1-1.5.4L56.3,16A1,1,0,0,1,55.9,14.54Z" transform="translate(0.04)"/><ellipse id="椭圆_17" data-name="椭圆 17" class="cls-2" cx="63.46" cy="15.95" rx="2.5" ry="4.3" transform="translate(17.95 62.93) rotate(-60)"/></g></svg>